<!-- Generated by IcoMoon.io -->
<svg version="1.1" xmlns="http://www.w3.org/2000/svg" width="32" height="32" viewBox="0 0 32 32">
<title>apache</title>
<path d="M30.75 1.531h-0.047t-0.047 0.031v0 0h-0.188q-0.125 0-0.281 0.031t-0.25 0.063h-0.031q-0.094 0-0.188 0.031t-0.188 0.031q0 0.031-0.031 0.031h-0.063q-0.063 0.031-0.125 0.031t-0.125 0.031-0.125 0.047-0.156 0.016q0 0.031-0.016 0.078t-0.047 0.078q-0.094 0.125-0.141 0.297t-0.109 0.359q-0.031 0.063-0.047 0.109t-0.047 0.109l-0.031 0.063v0.063h-0.031v0.031q-0.031 0.031-0.047 0.063t-0.047 0.063v0.125q-0.031 0.031-0.047 0.063t-0.016 0.063l-0.016 0.016t-0.016 0.047l-0.016 0.016t-0.016 0.047q-0.031 0-0.031-0.063v-0.156q0.031-0.063 0.031-0.078v-0.078q0.031-0.031 0.031-0.063t0.031-0.063q0-0.125 0.016-0.203t0.016-0.172v-0.094q0.031-0.063 0.031-0.125t0.031-0.156v0 0 0 0q0-0.063 0.016-0.125t0.047-0.125h-0.031v-0.031q-0.156 0.063-0.328 0.109t-0.359 0.109q-0.063 0.031-0.109 0.031h-0.109q-0.031 0.031-0.078 0.063t-0.109 0.063v0 0q-0.125 0.063-0.25 0.109t-0.281 0.078q-0.188 0.094-0.406 0.172t-0.438 0.172h-0.031q0 0.031-0.031 0.031h-0.031q-0.031 0.031-0.047 0.031h-0.047q-0.031 0.031-0.078 0.047t-0.109 0.047q-0.094 0.031-0.188 0.078l-0.156 0.078t-0.109 0.047-0.109 0.047v0 0h-0.016t-0.016 0.031q-0.094 0.031-0.188 0.078t-0.188 0.078q-0.031 0-0.047 0.016l-0.016 0.016q-0.094 0.031-0.188 0.078l-0.156 0.078q-0.188 0.094-0.359 0.172t-0.359 0.172q-0.25 0.125-0.484 0.25t-0.484 0.25v0h-0.031l-0.031 0.031q-0.156 0.063-0.297 0.125t-0.266 0.156q-0.031 0-0.031 0.016t-0.031 0.016v0.016t-0.031 0.016l-0.5 0.25q-0.031 0.031-0.078 0.063t-0.078 0.031l-0.047 0.047t-0.047 0.016q-0.031 0.031-0.094 0.063t-0.094 0.063q-0.25 0.125-0.484 0.266t-0.453 0.266q-0.063 0.031-0.109 0.063t-0.109 0.063q-0.031 0.031-0.063 0.047t-0.063 0.016l-0.125 0.125q-0.063 0-0.094 0.031t-0.063 0.031v0 0q-0.188 0.063-0.344 0.188t-0.281 0.219q-0.031 0-0.031 0.016v0.016h-0.031l-0.031 0.031q-0.031 0.031-0.078 0.047t-0.109 0.047q0 0.031-0.031 0.047t-0.063 0.047v0 0q-0.031 0-0.031 0.016t-0.031 0.016h-0.016t-0.016 0.031q-0.063 0.031-0.125 0.078t-0.125 0.078v0.016t-0.031 0.016h-0.031q-0.188 0.125-0.391 0.25t-0.359 0.281q-0.094 0.063-0.188 0.141t-0.219 0.172l-0.031 0.031q-0.031 0-0.063 0.031t-0.063 0.031q-0.063 0.063-0.109 0.094t-0.109 0.094q-0.063 0.031-0.094 0.063t-0.094 0.063l-0.063 0.063t-0.063 0.031v0.016t-0.031 0.016q-0.063 0.063-0.141 0.125t-0.172 0.125l-0.313 0.25t-0.281 0.25l-0.047 0.047t-0.047 0.016l-0.188 0.188t-0.078 0.063-0.078 0.063l-0.016 0.016t-0.047 0.016l-0.125 0.125q-0.031 0.063-0.078 0.094t-0.078 0.063q-0.094 0.094-0.203 0.188t-0.203 0.188q-0.031 0.063-0.078 0.094t-0.078 0.063l-0.031 0.031q0 0.031-0.016 0.031h-0.016q-0.031 0.031-0.031 0.047t-0.031 0.016q-0.25 0.25-0.5 0.484t-0.5 0.484q-0.031 0.031-0.047 0.063t-0.047 0.063l-0.375 0.375q0 0.031-0.016 0.047t-0.047 0.016l-0.047 0.047t-0.016 0.047q-0.031 0-0.031 0.016t-0.031 0.016q-0.156 0.156-0.313 0.297t-0.281 0.328v0 0l-0.156 0.156t-0.063 0.078-0.063 0.078v0 0q-0.219 0.219-0.422 0.438t-0.391 0.438v0h-0.031q-0.063 0.063-0.109 0.125t-0.109 0.125q0 0.031-0.047 0.063t-0.047 0.063l-0.125 0.125q-0.031 0-0.047 0.031l-0.016 0.031v0.016t-0.031 0.016v0 0.031q-0.094 0.031-0.141 0.094t-0.078 0.125v0l-0.031 0.031-0.016 0.031t-0.047 0.063l-0.125 0.125t-0.094 0.125q-0.156 0.156-0.281 0.297t-0.25 0.297v0.031q-0.031 0-0.031 0.016t-0.031 0.016q0 0.031-0.031 0.047t-0.031 0.047q-0.063 0.063-0.109 0.125t-0.109 0.125q-0.031 0.063-0.094 0.125t-0.094 0.125q-0.031 0-0.047 0.031l-0.016 0.031q-0.094 0.156-0.203 0.281t-0.203 0.25q-0.063 0.094-0.141 0.203t-0.141 0.203h-0.031v0.031q-0.031 0.031-0.047 0.063t-0.047 0.063q-0.031 0-0.031 0.016t-0.031 0.047l-0.031 0.063q-0.063 0.094-0.109 0.156t-0.109 0.125q-0.063 0.094-0.109 0.188t-0.109 0.156q-0.031 0.031-0.031 0.047t-0.031 0.047v0.031l-0.25 0.375q-0.031 0.094-0.094 0.172t-0.094 0.172q-0.063 0.125-0.141 0.234t-0.109 0.234q-0.063 0.094-0.094 0.172t-0.063 0.172v0 0q-0.031 0.094-0.063 0.156l-0.063 0.125v0.063q-0.031 0.063-0.047 0.109t-0.047 0.109v0.063t-0.031 0.063v0.063q-0.031 0.094-0.047 0.172t-0.016 0.141-0.016 0.109-0.016 0.109v0.313q0.031 0.031 0.031 0.078v0.078t0.016 0.047 0.016 0.047v0.031q0 0.031 0.016 0.047t0.016 0.047v0.063q0.031 0 0.031 0.016v0.047q-0.188 0.219-0.359 0.453t-0.359 0.484q-0.094 0.094-0.172 0.188t-0.141 0.219l-0.031 0.031q-0.031 0.063-0.063 0.094l-0.063 0.063q-0.375 0.5-0.703 0.969t-0.641 0.906l-0.625 0.875q-0.125 0.188-0.234 0.359t-0.234 0.359q-0.063 0.063-0.094 0.125t-0.094 0.125l-0.094 0.188-0.063 0.063t-0.031 0.094q-0.188 0.25-0.344 0.5t-0.281 0.469q-0.031 0-0.031 0.016v0.016q-0.031 0.031-0.063 0.078t-0.063 0.078q0 0.031-0.016 0.047t-0.016 0.047q-0.031 0.031-0.047 0.063t-0.047 0.063q-0.063 0.094-0.125 0.203t-0.125 0.203v0 0q-0.063 0.094-0.109 0.188t-0.109 0.156q-0.031 0.094-0.109 0.219l-0.078 0.125 0.094 0.063 1.906-2 0.047-0.063t0.078-0.125l0.016-0.016t0.016-0.047q0.031 0 0.031-0.016t0.031-0.047v-0.063q0.031-0.031 0.078-0.109t0.109-0.141q0.031-0.031 0.063-0.078t0.063-0.109v-0.031l0.031-0.031q0.094-0.156 0.219-0.359t0.281-0.391q0.031-0.031 0.047-0.063t0.047-0.063v-0.031q0.094-0.125 0.188-0.266t0.219-0.297q0.031-0.031 0.047-0.078t0.047-0.078q0.125-0.188 0.266-0.375t0.297-0.375v0 0q0-0.031 0.016-0.031h0.016q0.031-0.094 0.109-0.172t0.109-0.141q0.156-0.219 0.328-0.422t0.328-0.422h0.016t0.016-0.031l0.016-0.016t0.016-0.047q0.25-0.281 0.484-0.594t0.516-0.625h0.031l-0.031 0.031 0.656-0.188 0.141-0.063t0.266-0.094q0.063-0.031 0.125-0.047t0.125-0.047q0.188-0.031 0.344-0.078t0.344-0.078h0.031l0.625-0.125h0.031q0.125-0.031 0.266-0.047t0.266-0.016q0.125-0.031 0.219-0.047t0.219-0.016h0.094l0.5-0.063t0.5-0.094q0.063 0 0.141-0.016t0.141-0.047q0.063 0 0.125-0.016t0.125-0.047h0.094q0.031-0.031 0.047-0.031t0.047-0.031h0.094l0.031-0.031h0.047t0.047-0.031q0.031 0 0.063-0.016t0.063-0.016 0.047-0.016l0.016-0.016h0.031q0.094-0.031 0.172-0.078t0.172-0.078q0.031 0 0.063-0.016l0.094-0.047q0.156-0.031 0.297-0.125t0.297-0.188v-0.031q0.031 0 0.063-0.016l0.031-0.016q0.063-0.031 0.109-0.063t0.109-0.063v-0.016t0.031-0.016q0.063-0.031 0.109-0.047t0.109-0.016q0.469-0.375 0.969-0.766t0.938-0.734q0.156-0.156 0.313-0.297t0.313-0.297l0.078-0.078t0.109-0.078v-0.031q0.094-0.063 0.156-0.141t0.156-0.141q0.063-0.063 0.109-0.094t0.078-0.094q0.125-0.094 0.25-0.234t0.25-0.234l0.094-0.094t0.094-0.063q0.125-0.156 0.281-0.297t0.313-0.297q0.563-0.563 1.141-1.109t1.203-1.047v0-0.031q0.031 0 0.047-0.016l0.016-0.016q0.063-0.063 0.109-0.094t0.109-0.094l0.031-0.016t0.031-0.047q0.094-0.063 0.188-0.141t0.188-0.141q0.125-0.094 0.234-0.172t0.203-0.172q0.031 0 0.031-0.016t0.031-0.016q0.188-0.156 0.375-0.297t0.375-0.266q0.063-0.031 0.094-0.063l0.063-0.063q0.156-0.094 0.313-0.203t0.313-0.203q0.281-0.219 0.547-0.406t0.547-0.344q0.031-0.031 0.063-0.047t0.031-0.047q0.031 0 0.063-0.016t0.063-0.047 0.063-0.047 0.063-0.047q0.031 0 0.047-0.016l0.047-0.047q0.219-0.156 0.453-0.297t0.453-0.297q0.156-0.094 0.297-0.188t0.297-0.188q0.125-0.094 0.25-0.172t0.25-0.172q0.313-0.188 0.594-0.391t0.531-0.391q0.125-0.094 0.234-0.172t0.203-0.172q0.156-0.094 0.313-0.219l0.313-0.25q0.156-0.094 0.281-0.203t0.25-0.203l0.031-0.031h0.016t0.016-0.031v0h0.031q0.125-0.125 0.266-0.234t0.234-0.234q0.031 0 0.031-0.016v-0.016q0.063-0.063 0.141-0.125t0.141-0.156q0-0.063-0.031-0.141t-0.031-0.141q0-0.094-0.031-0.188l-0.063-0.188-0.016-0.016t-0.016-0.047q0-0.094-0.063-0.203t-0.125-0.172v-0.031l-0.156-0.156v-0.031q-0.031-0.063-0.078-0.109t-0.109-0.078l-0.219-0.219h-0.031v-0.031l-0.125-0.125h-0.016t-0.047-0.031v0q-0.031-0.031-0.063-0.047l-0.031-0.016-0.047-0.047t-0.047-0.016l-0.031-0.031h-0.016t-0.016-0.031v0 0 0 0q0.094 0.063 0.156 0.094t0.094 0.063l0.063 0.063q0.094 0.063 0.172 0.109t0.172 0.109q0 0.031 0.031 0.047t0.063 0.016v0 0.031q0.188 0.125 0.359 0.297t0.359 0.328v0 0 0.031q0.031 0 0.031 0.016v0.016q0.031 0.063 0.078 0.109l0.078 0.078q0.031 0.063 0.078 0.125t0.078 0.094v0 0q0.063-0.063 0.094-0.109t0.094-0.109l0.063-0.125t0.094-0.125l0.063-0.125t0.094-0.125l-0.016-0.016t0.016-0.016v0 0l0.125-0.25v-0.063h0.016t0.016-0.031q0.031-0.031 0.047-0.078t0.016-0.109v0h0.031q0-0.063 0.031-0.125t0.031-0.156v0 0l0.125-0.375v-0.063q0-0.031 0.016-0.063t0.016-0.063v-0.063t0.031-0.063v0 0q0-0.094 0.016-0.188t0.016-0.219v0-0.781q-0.031-0.125-0.031-0.25t-0.031-0.281h-0.016t-0.016-0.031v-0.078t-0.031-0.109q0-0.063-0.016-0.125t-0.047-0.125v-0.031q0-0.125-0.047-0.25t-0.078-0.25l-0.016-0.016t-0.047-0.016v-0.031q-0.031 0-0.047-0.016l-0.016-0.016v-0.031h-0.031l-0.031-0.031h-0.063q-0.031 0-0.047-0.016t-0.047-0.016h-0.031q-0.031-0.031-0.063-0.031h-0.219q-0.063-0.031-0.125-0.031h-0.125zM28.156 3.719q0 0.031-0.016 0.047l-0.016 0.016v-0.047t0.031-0.016z"></path>
</svg>
