<!-- Generated by IcoMoon.io -->
<svg version="1.1" xmlns="http://www.w3.org/2000/svg" width="32" height="32" viewBox="0 0 32 32">
<title>atom</title>
<path d="M9.797 2.467q-1.31 0.291-1.965 1.71t-0.509 3.638q0.036 0.655 0.073 0.855l0.182 1q0.036 0.327 0.073 0.582l0.036 0.255q-0.036 0-0.218 0.055t-0.473 0.127q-1.746 0.4-3.038 1t-2.055 1.401q-0.546 0.546-0.782 1.055t-0.2 1.128q0 0.364 0.109 0.746t0.327 0.746q0.182 0.291 0.709 0.837t0.964 0.837q0.909 0.582 1.273 0.709t0.618-0.127q0.109-0.109 0.146-0.182t0.036-0.182q0-0.255-0.109-0.4t-0.364-0.291q-1.237-0.691-1.874-1.382t-0.637-1.382q0-0.255 0.091-0.473t0.273-0.509q0.546-0.728 1.801-1.346t3.001-1.019q0.473-0.109 0.6-0.109t0.127 0.073 0.291 1 0.546 1.583l0.327 0.873-0.4 0.764q-0.182 0.291-0.382 0.709t-0.309 0.673q-1.71 3.784-1.983 6.603t0.964 4.056q0.291 0.291 0.564 0.437t0.673 0.255q0.909 0.255 2.074-0.091t2.51-1.219q0.473-0.327 0.618-0.491t0.146-0.382-0.218-0.418-0.473-0.164q-0.073 0-0.291 0.127t-0.473 0.309q-0.546 0.364-1.128 0.655t-1.019 0.4q-0.473 0.146-0.928 0.164t-0.746-0.127q-0.873-0.364-1.055-1.819t0.364-3.638q0.255-1.019 0.764-2.383t1.055-2.419l0.255-0.546 0.182 0.327q0.218 0.509 0.855 1.783t0.964 1.819q0.909 1.528 1.874 2.856t1.928 2.401 1.928 1.855 1.874 1.255q1.273 0.655 2.31 0.582t1.764-0.837q0.546-0.546 0.819-1.401t0.309-2.055q0.073-2.146-0.6-4.82t-2.019-5.621q-0.182-0.4-0.346-0.709t-0.2-0.346q-0.073-0.109-0.255-0.146t-0.291-0.036q-0.146 0.036-0.291 0.182t-0.182 0.291 0.036 0.346 0.4 0.928q0.946 2.001 1.564 4.020t0.873 3.838q0.073 0.582 0.091 1.601t-0.055 1.419-0.218 0.782-0.291 0.637q-0.255 0.364-0.564 0.528t-0.782 0.164q-1.382 0-3.42-1.764t-4.038-4.711q-0.873-1.346-1.692-2.838t-1.473-2.983l-0.291-0.728 0.4-0.728 0.873-1.382t0.946-1.382l0.509-0.728h0.8q2.074 0 4.111 0.236t3.838 0.637 3.311 0.982 2.565 1.31q0.473 0.327 0.891 0.746t0.6 0.746q0.109 0.218 0.127 0.346t0.018 0.382-0.018 0.382-0.127 0.273q-0.255 0.509-0.873 1t-1.528 0.855q-0.437 0.182-0.6 0.346t-0.164 0.382q0 0.182 0.091 0.327t0.236 0.218q0.182 0.073 0.291 0.073t0.4-0.109q1.273-0.546 2.165-1.273t1.219-1.528q0.509-1.455-0.564-2.856t-3.62-2.492q-1.091-0.473-2.419-0.873t-2.838-0.673-3.147-0.437-3.311-0.2h-0.473l0.546-0.655q0.473-0.546 1.346-1.419t1.346-1.273q1.091-0.909 2.055-1.492t1.801-0.837q0.437-0.109 0.873-0.109t0.728 0.146q0.364 0.146 0.6 0.509t0.382 0.91q0.073 0.364 0.073 1.182t-0.073 1.328q-0.109 0.546-0.091 0.728t0.164 0.327q0.109 0.109 0.182 0.146t0.255 0.036q0.327 0 0.455-0.182t0.236-0.8q0.036-0.291 0.055-0.655t0.018-0.946q0-0.728-0.018-0.982t-0.091-0.546q-0.218-0.91-0.782-1.528t-1.328-0.8q-0.873-0.218-1.983 0.091t-2.347 1.091-2.583 2.019-2.692 2.874q-0.218 0.255-0.4 0.473t-0.218 0.255q-0.073 0.109-0.2 0.127t-0.637 0.055q-0.327 0-0.819 0.055t-0.891 0.091q-1.055 0.109-1.182 0.109t-0.164-0.291q-0.182-0.728-0.236-1.346t-0.055-1.419q0-0.91 0.036-1.31t0.218-0.873q0.146-0.509 0.437-0.855t0.655-0.455q0.182-0.073 0.546-0.073t0.618 0.073q0.437 0.109 1.019 0.418t1.128 0.746q0.364 0.255 0.509 0.309t0.327-0.018q0.218-0.036 0.327-0.2t0.109-0.382q0-0.146-0.036-0.218t-0.218-0.218q-0.218-0.255-0.764-0.618t-0.982-0.546q-0.764-0.4-1.437-0.528t-1.255 0.018v0zM11.653 11.271l-0.728 1.091t-0.528 0.819-0.309 0.455l-0.146 0.255-0.109-0.327q-0.109-0.291-0.364-1.11t-0.255-0.891 0.309-0.127 1.546-0.164q0.255-0.036 0.418-0.036t0.164 0.036v0zM15.436 14.326q-0.291 0.109-0.528 0.291t-0.382 0.4q-0.473 0.655-0.273 1.419t0.928 1.128q0.218 0.109 0.346 0.127t0.418 0.018q0.327 0 0.455-0.018t0.346-0.127q0.946-0.473 0.928-1.583t-1-1.546q-0.255-0.146-0.618-0.164t-0.618 0.055v0z"></path>
</svg>
