<!-- Generated by IcoMoon.io -->
<svg version="1.1" xmlns="http://www.w3.org/2000/svg" width="32" height="32" viewBox="0 0 32 32">
<title>aws</title>
<path d="M16.438 15.25l-5.156 2.219 4.781 2.063 5.563-2.063-5.188-2.219zM8.688 18.031l-0.188 10 7.563 3.313v-10.375l-7.375-2.938zM24.219 18.031l-6.844 2.594v9.781l6.844-2.781v-9.594zM7.938 1.031l-5.156 2.219 4.781 2.031 5.531-2.031-5.156-2.219zM0.188 3.813l-0.188 9.969 7.563 3.313v-10.344l-7.375-2.938zM15.719 3.813l-6.844 2.594v9.781l6.844-2.781v-9.594zM24.594 0.656l-5.188 2.219 4.781 2.031 5.563-2.031zM16.813 3.438l-0.188 9.969 7.563 3.344v-10.375l-7.375-2.938zM32.344 3.438l-6.844 2.594v9.781l6.844-2.781v-9.594z"></path>
</svg>
