<!-- Generated by IcoMoon.io -->
<svg version="1.1" xmlns="http://www.w3.org/2000/svg" width="32" height="32" viewBox="0 0 32 32">
<title>battery-charging</title>
<path d="M14.118 25.843c-0.067-2.672-0.029-5.347-0.039-8.020-1.484-0.015-2.972 0.042-4.452-0.054 0.728-1.725 1.769-3.316 2.606-4.995 1.208-2.204 2.348-4.448 3.61-6.62 0.361 0.626 0.062 2.169 0.166 3.108 0 1.606 0 3.212 0 4.817 1.485 0.033 2.989-0.079 4.459 0.079-1.019 2.201-2.287 4.294-3.401 6.454-0.976 1.737-1.834 3.552-2.888 5.238l-0.060-0.005zM2.654 24.094c-1.204-0.375-1.266-1.583-1.185-2.628 0.004-4.097-0.094-8.197 0.019-12.291 0.071-0.863 0.949-1.356 1.629-1.426 3.161-0.021 6.325-0.063 9.485 0.017-0.534 1.027-0.539 1.035-1.026 1.888-2.76-0.001-5.519-0.003-8.279-0.004 0.012 4.184-0.029 8.37 0.047 12.553 3 0.086 6.003 0.052 9.004 0.074v1.872c-3.196-0.012-6.395 0.067-9.59-0.033l-0.105-0.022zM18.192 22.276l7.66-0.057 0.051-3.634 2.672 0.003c0.010-1.768-0.027-3.538 0.037-5.305-0.9-0.051-1.803-0.020-2.704-0.028v-3.631h-8.17v-1.872c2.771 0.009 5.543-0.045 8.312 0.033 0.516 0.042 0.604 0.083 0.999 0.312 0.769 0.461 0.789 1.508 0.768 2.404 0.015 0.436-0.123 0.933 0.512 0.894 1.069 0.010 1.305 0.066 1.708 0.575 0.589 0.881 0.425 2.093 0.424 3.125-0.011 1.377-0.010 2.754-0.043 4.131-0.257 0.91-1.218 1.414-2.12 1.314-0.574-0.052-0.486 0.398-0.5 0.834 0.014 0.887 0.133 1.867-0.583 2.508-0.698 0.459-1.677 0.342-2.41 0.341-2.497-0.026-5.042 0.045-7.532-0.015 0.657-1.357 0.636-1.365 0.92-1.932z"></path>
</svg>
