<!-- Generated by IcoMoon.io -->
<svg version="1.1" xmlns="http://www.w3.org/2000/svg" width="32" height="32" viewBox="0 0 32 32">
<title>clojure-line</title>
<path d="M16 1.622q-2.96 0-5.579 1.12t-4.579 3.080-3.099 4.579-1.14 5.579q0 3 1.14 5.599t3.099 4.559 4.579 3.099 5.579 1.14 5.579-1.14 4.579-3.099 3.099-4.559 1.14-5.599q0-2.96-1.14-5.579t-3.099-4.579-4.579-3.080-5.579-1.12v0zM16 2.982q2.68 0 5.059 1.020t4.139 2.78 2.78 4.139 1.020 5.059q0 0.44-0.020 0.84t-0.1 0.84q-0.24 1.040-0.7 1.76t-1.060 1.2q-0.84 0.76-1.96 1.040t-2.2 0.28q-0.28 0-0.58-0.020t-0.58-0.060q1.12-1.12 1.78-2.64t0.66-3.239v0q0-1.72-0.64-3.22t-1.76-2.62-2.62-1.76-3.22-0.64q-0.88 0-1.72 0.18t-1.6 0.5q-0.12-0.080-0.2-0.14t-0.2-0.1q-0.44-0.24-1.28-0.52t-2-0.28q-0.8 0-1.72 0.22t-1.84 0.82q1.76-2.48 4.519-3.959t6.039-1.48v0zM13.72 20.699q0.16-0.68 0.54-1.68t0.78-1.88q0.12-0.24 0.22-0.48t0.18-0.44q0.64 2.16 1.12 3.539t1.16 2.26q0.080 0.12 0.2 0.24l0.24 0.24q-0.52 0.16-1.060 0.26t-1.1 0.1q-0.64 0-1.22-0.1t-1.14-0.34q0-0.12-0.020-0.26t-0.020-0.26q0-0.36 0.040-0.66t0.080-0.54v0zM11.961 21.539q-1.28-0.92-2.060-2.38t-0.78-3.18 0.8-3.2 2.12-2.4q0.28 0.16 0.54 0.36t0.5 0.4q0.4 0.44 0.86 1.3t0.78 1.66q0.080 0.24 0.16 0.46t0.16 0.38q-1.2 2.44-1.98 3.859t-1.1 2.74v0zM17.12 17.42q-0.28-0.68-0.42-1.14l-0.14-0.46q-0.48-1.88-1.080-3.519t-1.64-2.84q0.52-0.16 1.060-0.26t1.1-0.1q2.84 0 4.859 2.020t2.020 4.859v0q0 1.72-0.78 3.16t-2.060 2.4q-0.16-0.080-0.3-0.12t-0.18-0.080q-0.2-0.080-0.48-0.36t-0.56-0.68q-0.4-0.64-0.76-1.42t-0.64-1.46v0zM16 28.978q-2.68 0-5.059-1.020t-4.139-2.78-2.78-4.139-1.020-5.059q0-0.36 0.020-0.7t0.060-0.7q0.8-2.72 2.52-3.839t3.519-1.12q0.36 0 0.72 0.040t0.72 0.12q-1.28 1.12-2.040 2.74t-0.76 3.459q0 1.72 0.64 3.22t1.76 2.62 2.62 1.78 3.22 0.66q1 0 1.92-0.24t1.76-0.64q0.48 0.16 1.060 0.28t1.26 0.2q0.24 0.040 0.52 0.060t0.56 0.020q0.8 0 1.7-0.12t1.86-0.36q-1.76 2.52-4.559 4.019t-6.079 1.5v0z"></path>
</svg>
