<!-- Generated by IcoMoon.io -->
<svg version="1.1" xmlns="http://www.w3.org/2000/svg" width="32" height="32" viewBox="0 0 32 32">
<title>clojure</title>
<path d="M15.409 16.273q-0.136 0.227-0.25 0.477t-0.204 0.568q-0.454 0.954-0.863 2.044t-0.591 1.862q-0.091 0.273-0.114 0.613t-0.023 0.704v0.591q0.636 0.227 1.295 0.363t1.34 0.136q0.636 0 1.227-0.114t1.181-0.295q-0.136-0.136-0.273-0.25t-0.227-0.295q-0.772-0.954-1.295-2.476t-1.204-3.929v0zM16 1.6q-0.182 0-0.386 0.023t-0.432 0.023h-0.409q-0.045 0-0.068 0.023t-0.068 0.023h-0.273t-0.091 0.023-0.091 0.023h-0.159t-0.114 0.045h-0.182t-0.114 0.023-0.159 0.023q-0.045 0-0.091 0.023t-0.091 0.023-0.114 0.023-0.159 0.023l-0.045 0.023t-0.091 0.023q-0.091 0-0.159 0.023t-0.114 0.023-0.091 0.023-0.091 0.023q-0.045 0.045-0.114 0.045t-0.159 0.045h-0.045t-0.091 0.045q-0.091 0-0.136 0.023t-0.136 0.023q-0.045 0.045-0.068 0.045t-0.068 0.045q-0.091 0-0.159 0.023t-0.114 0.023q-0.045 0.045-0.068 0.045t-0.068 0.045q-0.091 0-0.159 0.023t-0.114 0.068q-0.045 0-0.068 0.023t-0.068 0.023q-0.091 0-0.159 0.045t-0.114 0.045q-0.045 0.045-0.068 0.045h-0.023q-0.091 0.045-0.159 0.068t-0.159 0.068l-0.045 0.045q-0.454 0.182-0.909 0.432t-0.863 0.522h-0.023t-0.023 0.045q-0.091 0.045-0.159 0.091t-0.114 0.091h-0.068t-0.023 0.045q-0.091 0.045-0.136 0.091t-0.136 0.091l-0.023 0.023t-0.068 0.023q-0.045 0.045-0.114 0.091t-0.114 0.091l-0.091 0.091q-0.091 0.045-0.136 0.091t-0.136 0.091q0 0.045-0.023 0.045t-0.068 0.045-0.114 0.091-0.114 0.091q0 0.045-0.023 0.068t-0.068 0.023q-0.045 0.045-0.114 0.091t-0.114 0.091q0 0.045-0.023 0.068t-0.068 0.023l-0.409 0.409t-0.091 0.136q-0.045 0-0.068 0.023t-0.023 0.068q-0.045 0.045-0.114 0.091t-0.114 0.091q0 0.045-0.023 0.068t-0.068 0.023q-0.045 0.091-0.091 0.136t-0.091 0.136l-0.023 0.023t-0.068 0.023q-0.045 0.091-0.091 0.136t-0.091 0.136l-0.045 0.045q-0.091 0.091-0.136 0.159t-0.136 0.159v0.045q-0.045 0.045-0.091 0.114t-0.091 0.159q0.999-0.636 2.021-0.909t1.931-0.273q1.227 0 2.18 0.318t1.408 0.591q0.136 0.045 0.25 0.114t0.204 0.159q0.863-0.363 1.772-0.568t1.908-0.204q1.908 0 3.566 0.704t2.907 1.953 1.953 2.907 0.704 3.566v0q0 1.908-0.727 3.589t-1.999 2.907q0.318 0.045 0.659 0.068t0.659 0.023q1.181 0 2.408-0.318t2.226-1.136q0.591-0.5 1.113-1.317t0.795-1.953q0.045-0.454 0.091-0.931t0.045-0.931q0-2.953-1.136-5.587t-3.089-4.588-4.565-3.089-5.61-1.136v0zM22.632 24.722q-0.772-0.091-1.408-0.204t-1.181-0.295q-0.909 0.454-1.931 0.681t-2.112 0.227q-1.908 0-3.566-0.704t-2.907-1.953-1.953-2.907-0.704-3.566q0-2.044 0.84-3.838t2.249-3.021q-0.363-0.091-0.772-0.136t-0.818-0.045q-1.999 0-3.907 1.249t-2.771 4.247v0.114t-0.045 0.159v0.5t-0.023 0.136-0.023 0.136v0.5q0 2.998 1.136 5.61t3.089 4.565 4.565 3.089 5.61 1.136v0 0h0.636t0.136-0.023 0.136-0.023h0.454q0.045-0.045 0.114-0.045h0.227t0.114-0.045h0.227t0.114-0.023 0.114-0.023 0.114-0.023 0.114-0.023h0.114t0.114-0.045h0.091t0.136-0.045h0.091t0.091-0.045h0.136t0.091-0.045q0.045 0 0.114-0.023t0.114-0.023 0.114-0.023 0.114-0.023q0.045-0.045 0.091-0.045h0.091l0.136-0.068t0.091-0.023 0.091-0.023 0.136-0.023q0.045-0.045 0.091-0.068t0.091-0.023 0.114-0.023 0.114-0.023q0.045-0.045 0.091-0.068t0.136-0.023q0.045-0.045 0.091-0.045t0.091-0.045q0.045 0 0.091-0.023l0.136-0.068q0.045 0 0.091-0.023t0.091-0.023q0.045-0.045 0.091-0.068t0.091-0.068q0.045 0 0.091-0.023t0.091-0.023l0.136-0.068t0.091-0.068q0.045 0 0.091-0.023t0.091-0.023q0.045-0.045 0.091-0.068l0.136-0.068q0.045 0 0.068-0.023l0.068-0.068t0.114-0.068 0.114-0.068q0.045 0 0.091-0.023t0.091-0.023l0.091-0.091t0.091-0.045q0.045-0.045 0.091-0.068t0.091-0.023l0.091-0.091t0.091-0.045q0.045-0.045 0.091-0.068l0.045-0.023q0.091-0.045 0.136-0.091l0.091-0.091q0.045 0 0.068-0.023l0.068-0.068t0.114-0.068 0.114-0.068l0.068-0.068t0.068-0.023l0.091-0.091t0.136-0.091l0.091-0.091t0.114-0.091 0.114-0.091q0.045 0 0.045-0.023t0.045-0.023q0.045-0.091 0.114-0.136t0.114-0.091q0.045 0 0.045-0.023t0.045-0.023q0.045-0.091 0.114-0.136t0.114-0.091l0.045-0.045q0.045-0.045 0.136-0.114t0.136-0.159l0.409-0.409t0.068-0.091 0.068-0.091q0.045 0 0.068-0.045t0.068-0.091l0.136-0.136t0.068-0.091 0.068-0.091l0.045-0.045t0.045-0.091l0.091-0.091t0.045-0.091q0.045 0 0.045-0.023t0.045-0.023l0.363-0.545q-1.045 0.273-2.044 0.409t-1.862 0.136q-0.318 0-0.636-0.023t-0.591-0.068v0zM19.907 21.951q0.091 0.045 0.227 0.091t0.363 0.091q1.408-1.045 2.249-2.635t0.886-3.498v0q-0.045-3.134-2.271-5.36t-5.36-2.226q-0.636 0-1.227 0.091t-1.181 0.273q1.181 1.317 1.84 3.134t1.204 3.907v0 0l0.159 0.5t0.432 1.272q0.318 0.772 0.704 1.635t0.84 1.544q0.318 0.454 0.613 0.772t0.522 0.409v0zM11.639 9.777q-1.499 1.045-2.362 2.68t-0.909 3.543q0.045 1.908 0.886 3.521t2.294 2.657q0.318-1.454 1.204-3.044t2.158-4.27q-0.045-0.227-0.136-0.454l-0.182-0.454q-0.363-0.954-0.863-1.885t-0.954-1.431l-0.545-0.454t-0.591-0.409v0z"></path>
</svg>
