<!-- Generated by IcoMoon.io -->
<svg version="1.1" xmlns="http://www.w3.org/2000/svg" width="32" height="32" viewBox="0 0 32 32">
<title>coffeescript</title>
<path d="M12.563 7.406q2.219-0.188 3.422-1.203t3.766-1.266q1.25-0.094 2.016 0.125t0.828 0.656q0.094 0.406-0.438 0.672t-1.313 0.328q-1.031 0.125-1.531-0.188t-0.563-0.656q-0.781 0.063-0.984 0.344t-0.172 0.531q0.094 0.438 1 0.781t2.531 0.188q1.844-0.156 2.516-0.766t0.547-1.359q-0.188-0.938-1.578-1.578t-3.922-0.422q-3.25 0.313-4.141 1.375t-3.109 1.25q-0.875 0.094-1.391-0.094t-0.609-0.563q-0.031-0.344 0.328-0.516t0.891-0.234q0.469-0.031 0.984 0.047t0.797 0.203q0.219-0.094 0.297-0.203t0.047-0.234q-0.094-0.344-0.688-0.484t-1.438-0.078q-1.625 0.156-1.891 0.719t-0.203 0.906q0.188 0.875 1.328 1.375t2.672 0.344v0zM27.219 12.344q-1 0.25-2.156 0.438t-2.438 0.313-2.719 0.203-2.969 0.078q-1.594 0-3.031-0.078t-2.734-0.219-2.453-0.328-2.156-0.406q-1.813-0.469-2.813-0.969t-1.344-1.031q0.156 1.188 0.453 2.328t0.703 2.234q-0.469 0.281-0.891 0.656t-0.797 0.844q-0.719 0.906-1.031 1.922t-0.281 2.047q0.063 1.031 0.547 1.875t1.297 1.5q0.844 0.656 1.75 0.859t1.938 0.016q0.406-0.063 0.828-0.234t0.828-0.297q-0.844 0-1.578-0.281t-1.453-0.844q-0.75-0.563-1.266-1.344t-0.641-1.75q-0.188-0.906 0-1.734t0.688-1.578q0.125-0.125 0.234-0.25t0.234-0.25q0.281 0.719 0.609 1.406t0.703 1.344q0.75 1.156 1.531 2.234t1.563 2.172q0.344 0.656 0.578 1.313t0.359 1.281q0.531 0.719 1.25 1.219t1.625 0.781q1.094 0.375 2.25 0.547t2.344 0.172h0.156q1.188 0 2.406-0.188t2.344-0.563q0.844-0.281 1.547-0.766t1.234-1.234h0.094q0.125-0.563 0.328-1.25t0.547-1.344q0.75-1.094 1.531-2.156t1.563-2.25q1.031-1.875 1.734-4t1.109-4.406q-0.406 0.563-1.406 1.078t-2.75 0.891v0zM6.563 10.188q1 0.25 2.156 0.438t2.438 0.313 2.703 0.188 2.984 0.063q1.594 0 3.016-0.063t2.703-0.188 2.422-0.328 2.172-0.422q2.125-0.531 3.172-1.156t1.047-1.25q0-0.469-0.453-0.891t-1.297-0.766q0.188 0.125 0.313 0.328t0.125 0.422q0 0.656-0.969 1.188t-2.906 0.969q-1.813 0.375-4.125 0.641t-5.125 0.266q-2.719 0-5.078-0.25t-4.109-0.625q-1.875-0.469-2.844-1t-0.969-1.156q0-0.281 0.141-0.531t0.516-0.5q-1.188 0.469-1.797 0.891t-0.609 1.016q0.063 0.656 1.141 1.281t3.234 1.125v0z"></path>
</svg>
