<!-- Generated by IcoMoon.io -->
<svg version="1.1" xmlns="http://www.w3.org/2000/svg" width="32" height="32" viewBox="0 0 32 32">
<title>cplusplus-line</title>
<path d="M21.75 17.5v-1.25h1.25v-1h-1.25v-1.25h-1.25v1.25h-1.25v1h1.25v1.25h1.25zM26.25 14h-1v1.25h-1.5v1h1.5v1.25h1v-1.25h1.25v-1h-1.25v-1.25zM29.125 8.063q-0.125-0.188-0.266-0.359t-0.297-0.266l-12.031-6.969q-0.156-0.094-0.359-0.125t-0.422-0.031-0.422 0.047-0.359 0.109l-12.125 6.969q-0.313 0.188-0.578 0.578t-0.266 0.766v13.906q0 0.219 0.109 0.438t0.234 0.438h0.031q0.094 0.156 0.234 0.281t0.266 0.219l12.063 6.969q0.156 0.094 0.375 0.125t0.438 0.031 0.422-0.047 0.359-0.109l11.875-6.969q0.313-0.188 0.453-0.594t0.141-0.781v-13.906q0-0.156 0.031-0.328t-0.031-0.328l0.125-0.063zM28.063 8.594q0 0.063-0.031 0.109t-0.031 0.078v13.906q0 0.156-0.031 0.313t-0.063 0.188l-11.906 6.969q-0.031 0-0.094 0.016t-0.188 0.016q-0.094 0-0.172-0.016t-0.109-0.016l-12.047-6.969h-0.047l-0.156-0.156q-0.063-0.125-0.031-0.203t-0.156-0.109v-13.906q0.188-0.094 0.219-0.266t0.125-0.234l12.094-6.969 0.094-0.016t0.188-0.016q0.125 0 0.188 0.016t0.094 0.016l12 6.938 0.094 0.219q0.031 0.031 0 0.063l-0.031 0.031zM15.75 21.875q-1.25 0-2.375-0.484t-1.953-1.313-1.313-1.938-0.484-2.391q0-1.25 0.484-2.375t1.313-1.953 1.938-1.313 2.391-0.484q1.719 0 3.125 0.859t2.188 2.266l3.25-1.875q-0.625-1.125-1.531-2.047t-2-1.578-2.375-1.016-2.656-0.359q-2.031 0-3.828 0.781t-3.141 2.109-2.125 3.141-0.781 3.844 0.781 3.828 2.109 3.141 3.141 2.125 3.844 0.781q1.375 0 2.641-0.359t2.359-1.016 2-1.563 1.563-2l-3.25-1.906q-0.781 1.375-2.188 2.234t-3.125 0.859v0z"></path>
</svg>
