<!-- Generated by IcoMoon.io -->
<svg version="1.1" xmlns="http://www.w3.org/2000/svg" width="32" height="32" viewBox="0 0 32 32">
<title>csharp</title>
<path d="M29.375 8.375l0.063-0.063q-0.094-0.188-0.25-0.359t-0.344-0.266l-12.063-6.969q-0.156-0.094-0.359-0.125t-0.422-0.031-0.422 0.047-0.359 0.109l-12 6.969q-0.313 0.188-0.516 0.594t-0.203 0.781v13.906q0 0.219 0.047 0.438t0.172 0.406l-0.031 0.031q0.094 0.156 0.219 0.281t0.25 0.188l12.031 7q0.156 0.094 0.359 0.125t0.422 0.031 0.422-0.047 0.359-0.109l12-7q0.313-0.188 0.516-0.578t0.203-0.766v-13.938q0.031-0.156 0-0.328t-0.094-0.328v0zM16 25.875q-2.031 0-3.828-0.781t-3.141-2.109-2.125-3.141-0.781-3.844 0.781-3.828 2.109-3.141 3.141-2.125 3.844-0.781q1.375 0 2.656 0.359t2.375 1.016 2 1.578 1.531 2.047l-3.25 1.875q-0.781-1.406-2.188-2.266t-3.125-0.859q-1.25 0-2.375 0.484t-1.953 1.313-1.313 1.938-0.484 2.391q0 1.25 0.484 2.375t1.313 1.953 1.938 1.313 2.391 0.484q1.719 0 3.125-0.859t2.188-2.234l3.25 1.906q-0.656 1.094-1.563 2t-2 1.563-2.359 1.016-2.641 0.359v0zM28.75 15.5h-0.813l-0.219 1h1.031v1.25h-1.25l-0.313 1.5h-1.219l0.313-1.5h-0.969l-0.281 1.5h-1.219l0.313-1.5h-0.625v-1.25h0.875l0.219-1h-1.094v-1.25h1.313l0.313-1.5h1.219l-0.281 1.5h0.938l0.313-1.5h1.188l-0.313 1.5h0.563v1.25zM25.563 16.5h0.969l0.219-1h-0.938z"></path>
</svg>
