<!-- Generated by IcoMoon.io -->
<svg version="1.1" xmlns="http://www.w3.org/2000/svg" width="32" height="32" viewBox="0 0 32 32">
<title>cup-right</title>
<path d="M0 22q0-5.125 0-8.266t0.016-4.859 0.031-2.297 0.016-0.578q0.094 0 0.734 0.266t1.203 0.547q1.219 0.625 2.25 1.359t2.031 1.703q0.656 0.625 1.344 1.453t1.094 1.516q0.094 0.125 0.188 0.266t0.125 0.234q0.156 0.219 0.469 0.828t0.469 0.984q0.094 0.156 0.156 0.328t0.094 0.234 0.063 0.125 0.031 0.094q0 0 0.016 0.047t0.047 0.109q0 0.063 0.063 0.234t0.125 0.359q0.063 0.156 0.125 0.344t0.063 0.25q0.063 0.156 0.188 0.641t0.156 0.734q0.031 0.188 0.094 0.531t0.156 1.094q0.063 0.438 0.078 1.266t-0.016 1.422q-0.094 1-0.266 2.031t-0.391 1.656q0 0.063-0.063 0.25t-0.125 0.375-0.125 0.344-0.063 0.219q-0.031 0.063-0.047 0.109t-0.016 0.047q0 0.063-0.234 0.578t-0.391 0.828q-0.094 0.188-0.172 0.359t-0.141 0.266q-0.031 0.063-0.141 0.25t-0.234 0.375q-1.281 2.094-3.016 3.703t-3.859 2.703q-0.469 0.25-1.125 0.531t-0.875 0.375l-0.125 0.031v-16z"></path>
</svg>
