<!-- Generated by IcoMoon.io -->
<svg version="1.1" xmlns="http://www.w3.org/2000/svg" width="32" height="32" viewBox="0 0 32 32">
<title>cup-left</title>
<path d="M10.875 37.813q-0.219-0.094-0.609-0.281t-0.766-0.344q-2.188-1.094-3.969-2.734t-3.094-3.766q-0.125-0.188-0.234-0.391t-0.141-0.266q-0.063-0.094-0.141-0.266t-0.172-0.328q-0.156-0.313-0.375-0.813t-0.25-0.688q-0.031-0.031-0.047-0.094t-0.047-0.063q0-0.031-0.063-0.172t-0.094-0.328q-0.063-0.188-0.125-0.359t-0.063-0.234q-0.219-0.656-0.406-1.672t-0.25-2.047q-0.031-0.594-0.016-1.406t0.078-1.281q0.094-0.75 0.156-1.094t0.094-0.531q0.031-0.25 0.156-0.734t0.188-0.641q0-0.063 0.063-0.234t0.125-0.359 0.109-0.359 0.078-0.234q0.031-0.031 0.047-0.094t0.016-0.063q0-0.031 0.031-0.078t0.063-0.141q0.031-0.063 0.094-0.234t0.156-0.328q0.156-0.375 0.469-0.984t0.438-0.828q0.063-0.063 0.156-0.219t0.188-0.281q0.406-0.688 1.094-1.516t1.344-1.453q1-0.969 2.016-1.703t2.266-1.359q0.563-0.281 1.203-0.547t0.734-0.266q0 0 0.016 0.578t0.031 2.297 0.016 4.859 0 8.266q0 3.313 0 6.219t-0.016 5.078-0.016 3.438 0 1.266q-0.031 0-0.188-0.063t-0.344-0.125z"></path>
</svg>
