<!-- Generated by IcoMoon.io -->
<svg version="1.1" xmlns="http://www.w3.org/2000/svg" width="32" height="32" viewBox="0 0 32 32">
<title>d3</title>
<path d="M29.531 16q1-1.188 1.547-2.656t0.547-3.094q0-1.875-0.703-3.516t-1.938-2.859-2.875-1.922-3.484-0.703h-10.625q1.938 1.313 3.516 2.969t2.672 3.531h4.438q1.031 0 1.766 0.734t0.734 1.766-0.734 1.766-1.766 0.734h-2.625q0.156 0.938 0.234 1.688t0.078 1.594q0 0.813-0.078 1.641t-0.203 1.578h2.594q1.031 0 1.766 0.797t0.734 1.828-0.734 1.828-1.766 0.797h-4.406q-0.25 0.375-0.516 0.844t-0.578 0.906q-1 1.438-2.281 2.625t-2.781 2.125h10.563q1.813 0 3.406-0.688t2.813-1.875 1.953-2.781 0.828-3.375v0.094t-0.031 0.094q0.031-0.188 0.031-0.359v-0.328q0-1.625-0.547-3.125t-1.547-2.656v0zM15.25 24.375v-0.031q0.031-0.031 0.047-0.063l0.016-0.031q0-0.031 0.016-0.063t0.047-0.031v-0.031q1.156-1.75 1.797-3.797t0.641-4.297q0-3.063-1.172-5.75t-3.188-4.703-4.703-3.172-5.75-1.156h-2.75v6.5h2.75q1.719 0 3.219 0.656t2.641 1.781 1.797 2.625 0.656 3.219q0 0.938-0.203 1.813t-0.578 1.688v0.094q-1 2.125-3.016 3.5t-4.516 1.375h-2.75v6.5h2.75q1.906 0 3.688-0.484t3.344-1.359 2.891-2.078 2.328-2.703z"></path>
</svg>
