<!-- Generated by IcoMoon.io -->
<svg version="1.1" xmlns="http://www.w3.org/2000/svg" width="34" height="32" viewBox="0 0 34 32">
<title>dlang</title>
<path d="M15.621 12.165v0 0q-0.353-0.265-0.749-0.485t-0.838-0.397q-0.485-0.176-0.926-0.287t-0.838-0.198q-0.397-0.044-1.102-0.066t-1.675-0.022h-2.777v10.581h2.866q1.014 0 1.808-0.066t1.278-0.154q0.573-0.132 0.992-0.265t0.771-0.265q0.353-0.176 0.661-0.375t0.617-0.463q0.926-0.749 1.367-1.697t0.441-2.138q0-1.146-0.463-2.050t-1.433-1.653v0zM29.729 4.185h-25.614q-1.279 0-2.16 0.97t-0.882 2.381v16.929q0 1.411 0.882 2.381t2.16 0.97h25.614q1.279 0 2.16-0.97t0.882-2.381v-16.929q0-1.411-0.882-2.381t-2.16-0.97v0zM27.833 12.958q0 1.763-1.323 2.998t-3.218 1.234h-0.309q-0.088 0.529-0.265 1.058t-0.441 1.058q-0.397 0.749-0.97 1.455t-1.279 1.279q-0.749 0.617-1.631 1.080t-1.852 0.771q-0.573 0.176-1.102 0.309t-1.014 0.176h-0.044q-0.485 0.088-1.367 0.11t-2.16 0.022l-6.128 0.044-0.088-0.044h-0.132l-0.044-0.044h-0.044l-0.088-0.088h-0.044v-0.044h-0.044v-0.044h-0.044v-0.044h-0.022t-0.022-0.044v0 0-0.022t-0.044-0.022v0 0-0.132h-0.022t-0.022-0.044v0 0-15.915q0-0.22 0.154-0.397t0.419-0.176h0.088l6.481-0.044q2.028 0 3.637 0.265t2.844 0.794q0.705 0.265 1.301 0.617t1.124 0.794q0.617-0.529 1.433-0.838t1.697-0.309q1.896 0 3.24 1.234t1.345 2.954v0 0 0zM29.949 8.373q0 0.529-0.419 0.926t-1.036 0.397-1.058-0.375-0.441-0.948v0 0q0-0.573 0.441-0.97t1.058-0.397 1.036 0.397 0.419 0.97v0 0 0z"></path>
</svg>
