<!-- Generated by IcoMoon.io -->
<svg version="1.1" xmlns="http://www.w3.org/2000/svg" width="34" height="32" viewBox="0 0 34 32">
<title>erlang</title>
<path d="M6.183 25.903q-0.918-0.951-1.639-2.099t-1.213-2.459-0.754-2.771-0.262-3.033q0-2.82 0.836-5.214t2.377-4.23v0h-4.263v19.805h4.918zM28.644 25.903q0.787-0.82 1.492-1.82t1.328-2.115l-4.722-2.361q-1.246 2.033-3.082 3.607t-4.361 1.574q-1.803 0-3.099-0.738t-2.115-2.033-1.197-3.033-0.377-3.738h18.264v-1.18q0.066-2.394-0.525-4.41t-1.771-3.558v0h4.099v19.805h-3.935zM12.807 10.622q0.164-1.803 1.426-2.935t2.967-1.131q1.672 0 2.787 1.131t1.148 2.935h-8.329z"></path>
</svg>
