<!-- Generated by IcoMoon.io -->
<svg version="1.1" xmlns="http://www.w3.org/2000/svg" width="32" height="32" viewBox="0 0 32 32">
<title>git</title>
<path d="M31.406 14.563l-13.969-13.969q-0.625-0.594-1.469-0.594t-1.469 0.594l-3.25 3.25 2.469 2.438q0.281-0.125 0.609-0.203t0.672-0.078q1.25 0 2.125 0.875t0.875 2.125q0 0.344-0.078 0.672t-0.203 0.609l4 4q0.281-0.125 0.609-0.203t0.672-0.078q1.25 0 2.125 0.875t0.875 2.125-0.875 2.125-2.125 0.875-2.125-0.875-0.875-2.125q0-0.344 0.078-0.672t0.203-0.609l-4-4q-0.063 0.031-0.141 0.063t-0.141 0.063v8.313q0.875 0.313 1.438 1.094t0.563 1.75q0 1.25-0.875 2.125t-2.125 0.875-2.125-0.875-0.875-2.125q0-0.969 0.563-1.75t1.438-1.094v-8.313q-0.875-0.313-1.438-1.094t-0.563-1.75q0-0.344 0.078-0.672t0.203-0.609l-2.438-2.469-9.25 9.25q-0.594 0.625-0.594 1.469t0.594 1.469l13.969 13.969q0.625 0.594 1.469 0.594t1.469-0.594l13.906-13.906q0.594-0.625 0.594-1.469t-0.594-1.469v0z"></path>
</svg>
