<!-- Generated by IcoMoon.io -->
<svg version="1.1" xmlns="http://www.w3.org/2000/svg" width="32" height="32" viewBox="0 0 32 32">
<title>go-line</title>
<path d="M15.372 1.67q-0.105 0-0.54 0.052t-0.924 0.087q-1.29 0.174-2.406 0.54t-1.918 0.924q-0.279 0.174-0.366 0.192t-0.296-0.087q-0.279-0.139-0.889-0.157t-0.994 0.122q-0.523 0.174-0.854 0.54t-0.436 0.889q-0.070 0.418 0.017 0.854t0.296 0.75q0.105 0.174 0.488 0.453t0.662 0.384q0.035 0 0 0.349t-0.105 0.802q-0.139 0.732-0.157 1.255t0.017 1.604q0 0.697 0.052 1.43t0.122 1.046q0.035 0.349 0.105 0.767t0.070 0.697l0.070 0.628-0.384 0.070q-0.418 0.070-0.941 0.349t-0.593 0.488 0 0.453 0.314 0.488q0.244 0.279 0.471 0.262t0.645-0.296l0.349-0.209v3.87q0 2.929 0.017 3.487t0.157 0.907q0.209 0.488 0.558 1.029t0.732 0.959l0.418 0.418-0.418 0.279q-0.349 0.244-0.593 0.593t-0.244 0.662q0 0.105 0.070 0.227t0.244 0.262q0.174 0.209 0.314 0.262t0.384 0.052q0.279 0 0.418-0.070t0.453-0.314q0.174-0.174 0.418-0.331t0.384-0.262l0.349-0.174 0.802 0.279q0.976 0.314 1.761 0.436t2.075 0.122q1.604-0.035 2.946-0.262t2.319-0.68l0.349-0.139t0.244-0.070q0.035 0 0.279 0.209t0.523 0.488q0.488 0.523 0.61 0.61t0.401 0.017q0.349-0.035 0.593-0.279t0.244-0.558q0-0.349-0.174-0.645t-0.523-0.645l-0.418-0.349 0.384-0.558q0.558-0.767 0.907-1.674t0.593-2.162q0.105-0.767 0.139-2.162t-0.070-3.033q0-0.418-0.017-0.715l-0.017-0.296 0.122 0.052t0.262 0.157q0.349 0.209 0.593 0.209t0.453-0.244q0.174-0.174 0.244-0.366t0.035-0.506q-0.035-0.279-0.296-0.453t-0.854-0.349q-0.244-0.035-0.418-0.105t-0.209-0.070q0-0.035-0.035-1.029t-0.035-2.354q-0.070-2.615-0.122-3.277t-0.366-1.987v-0.122t0.070-0.052q0.139 0 0.523-0.314t0.523-0.558q0.314-0.523 0.279-1.133t-0.418-1.133-1.116-0.697-1.534 0.105l-0.523 0.174-0.418-0.279q-0.453-0.314-1.151-0.593t-1.36-0.418q-0.558-0.105-1.918-0.174t-1.813 0v0zM18.615 2.088q2.092 0.349 3.312 1.395t1.883 3.068q0.384 1.185 0.488 2.319t0.174 4.55q0.035 1.709 0.070 3.434t0.105 2.458q0.035 0.697 0.035 1.464v1.116q-0.105 1.255-0.366 2.371t-0.68 1.883q-0.244 0.523-0.68 1.063t-0.61 0.61q-0.105 0-0.262 0.122t-0.296 0.227q-0.732 0.697-2.249 1.116t-3.574 0.488q-1.255 0.035-2.127-0.070t-1.883-0.418q-0.523-0.174-0.732-0.296t-0.488-0.366q-0.314-0.349-0.593-0.523t-0.523-0.174q-0.314 0-0.976-0.854t-0.941-1.621q-0.174-0.523-0.227-2.022t0.052-4.602l0.105-3.591-0.174-1.569q-0.418-3.138-0.035-5.526t1.534-3.818q0.523-0.628 1.325-1.098t1.918-0.784q1.151-0.314 3.243-0.436t3.173 0.087v0zM24.473 3.308q0.802 0.418 0.837 1.395t-0.732 1.499q-0.174 0.070-0.296 0.157t-0.157 0.087l-0.070-0.157t-0.174-0.366l-0.174-0.523 0.209-0.279q0.139-0.139 0.174-0.244t0-0.209q-0.070-0.314-0.262-0.401t-0.54-0.017q-0.139 0.035-0.244-0.035t-0.349-0.384q-0.139-0.174-0.244-0.331t-0.070-0.157q0-0.035 0.139-0.070t0.349-0.105q0.418-0.105 0.837-0.070t0.767 0.209v0zM8.469 3.553q0.174 0.035 0.314 0.087t0.139 0.087q0.035 0.035-0.070 0.192t-0.244 0.331q-0.244 0.349-0.349 0.401t-0.314 0.052q-0.209-0.035-0.279-0.017t-0.209 0.192q-0.174 0.209-0.174 0.384t0.209 0.384l0.174 0.244-0.139 0.488q-0.070 0.174-0.157 0.331t-0.122 0.157q-0.105 0-0.418-0.209t-0.453-0.384q-0.558-0.732-0.261-1.586t1.133-1.098q0.384-0.105 0.593-0.105t0.628 0.070v0zM25.693 15.93q0.418 0.174 0.628 0.401t0.139 0.471l-0.035 0.209-0.314-0.174q-0.105-0.070-0.209-0.105t-0.105 0q-0.035 0.035 0 0.087t0.105 0.052q0.209 0.070 0.279 0.192t-0.035 0.262-0.366 0.105-0.575-0.244l-0.418-0.279v-0.593q0-0.384 0.035-0.471t0.174-0.087q0.070 0 0.279 0.052t0.418 0.122v0zM7.353 16.279q0 0.488-0.087 0.732t-0.366 0.418q-0.384 0.279-0.593 0.314t-0.384-0.139q-0.139-0.139-0.139-0.174t0.105-0.105q0.244-0.174 0.314-0.244t0-0.105q-0.035 0-0.122 0.035t-0.192 0.105q-0.139 0.105-0.192 0.105t-0.087-0.070q-0.105-0.314 0.122-0.558t0.784-0.453q0.523-0.174 0.68-0.139t0.157 0.279v0zM23.183 28.169q0.314 0.244 0.558 0.715t0.139 0.715q-0.070 0.244-0.157 0.227t-0.262-0.401q-0.105-0.174-0.192-0.314t-0.122-0.139 0 0.139 0.139 0.349 0.174 0.384 0.035 0.209-0.122 0.052-0.227 0.017q-0.174 0-0.314-0.105t-0.488-0.488q-0.209-0.244-0.418-0.418t-0.279-0.209q-0.174-0.070-0.122-0.209t0.366-0.418q0.349-0.314 0.628-0.331t0.662 0.227v0zM10.073 28.238q0.105 0.035 0.261 0.174t0.296 0.314l0.314 0.349-0.349 0.139q-0.139 0.070-0.384 0.244t-0.453 0.349q-0.418 0.349-0.645 0.436t-0.471-0.017q-0.174-0.070-0.209-0.122t0.035-0.192q0.035-0.105 0.122-0.262t0.192-0.262q0.070-0.105 0.122-0.209t0.052-0.139q-0.070-0.035-0.279 0.227t-0.314 0.471q-0.070 0.209-0.157 0.209t-0.122-0.209q-0.105-0.349 0.139-0.715t0.767-0.68q0.384-0.209 0.593-0.227t0.488 0.122v0zM18.441 3.134q-0.662 0.174-1.185 0.593t-0.767 1.011q-0.209 0.418-0.192 1.029t0.227 1.029q0.209 0.453 0.628 0.854t0.837 0.575q0.523 0.174 1.22 0.157t1.116-0.261q0.697-0.349 1.029-0.872t0.401-1.325q0-0.488-0.017-0.697t-0.157-0.488q-0.244-0.488-0.54-0.802t-0.75-0.558q-0.453-0.209-0.959-0.279t-0.889 0.035v0zM20.079 3.448q1.081 0.488 1.43 1.604t-0.279 2.092q-0.593 0.941-1.831 1.081t-2.075-0.628q-0.767-0.662-0.872-1.552t0.418-1.691q0.523-0.767 1.447-1.029t1.761 0.122v0zM17.011 5.331q-0.523 0.453-0.157 1.029t1.029 0.401q0.279-0.070 0.471-0.314t0.192-0.523q0-0.558-0.558-0.784t-0.976 0.192v0zM11.502 3.448q-0.488 0.174-0.959 0.558t-0.715 0.837q-0.139 0.279-0.174 0.488t-0.035 0.662 0.035 0.68 0.139 0.471q0.628 1.22 1.987 1.482t2.371-0.645q0.488-0.453 0.68-0.872t0.192-1.046q0-0.453-0.035-0.662t-0.209-0.523q-0.349-0.697-1.011-1.098t-1.464-0.401q-0.244 0-0.471 0.035t-0.331 0.035v0zM13.559 3.831q1.395 0.802 1.325 2.284t-1.499 2.214q-0.453 0.209-1.098 0.192t-1.133-0.261q-1.43-0.697-1.412-2.249t1.482-2.249q0.279-0.139 0.471-0.174t0.715-0.035q0.488 0.035 0.697 0.087t0.453 0.192v0zM10.631 5.296q-0.209 0.070-0.418 0.279t-0.244 0.418 0.070 0.488 0.314 0.418q0.070 0.035 0.227 0.087t0.296 0.052q0.732 0 0.872-0.697t-0.523-0.976q-0.244-0.105-0.314-0.105t-0.279 0.035v0zM15.372 7.597q-0.314 0.070-0.523 0.227t-0.279 0.401q0 0.105-0.070 0.209t-0.209 0.139q-0.384 0.209-0.575 0.61t-0.052 0.75q0.070 0.139 0.314 0.261t0.488 0.122h0.244l-0.070 0.453q-0.070 0.418-0.035 0.715t0.209 0.471q0.174 0.139 0.384 0.139t0.418-0.209l0.244-0.174 0.139 0.174q0.139 0.174 0.453 0.174t0.488-0.174q0.105-0.105 0.139-0.244t0-0.628l-0.035-0.697h0.279q0.697 0 0.697-0.68t-0.732-1.063q-0.174-0.070-0.262-0.157t-0.087-0.157q-0.035-0.209-0.157-0.349t-0.401-0.244q-0.244-0.105-0.436-0.122t-0.575 0.052v0zM17.185 8.713q0.349 0.174 0.506 0.418t0.157 0.523q0 0.244-0.035 0.314t-0.244 0.139q-0.209 0.105-0.523 0.070t-0.802-0.244q-0.314-0.105-0.453-0.087t-0.558 0.122q-0.732 0.244-1.081 0.139t-0.384-0.523q0-0.244 0.122-0.436t0.366-0.366q0.244-0.139 0.331-0.139t0.296 0.105q0.139 0.070 0.349 0.122t0.384 0.087q0.244 0 0.401-0.035t0.401-0.139q0.174-0.105 0.279-0.174t0.139-0.070l0.349 0.174zM15.791 10.77q-0.070 0.662-0.139 0.872t-0.279 0.244q-0.384 0.105-0.523-0.157t-0.070-0.854l0.070-0.593 0.418-0.139q0.174-0.070 0.314-0.105t0.174-0.035 0.035 0.227v0.54zM16.418 10.177q0.314 0.105 0.418 0.279t0.105 0.662q0 0.349-0.035 0.471t-0.174 0.227q-0.209 0.139-0.436 0.070t-0.262-0.279q-0.035-0.105-0.052-0.209t-0.017-0.139q-0.070-0.139 0-0.662t0.105-0.523 0.139 0.035l0.209 0.070z"></path>
</svg>
