<!-- Generated by IcoMoon.io -->
<svg version="1.1" xmlns="http://www.w3.org/2000/svg" width="32" height="32" viewBox="0 0 32 32">
<title>grunt-line</title>
<path d="M16 12.181v0 0 0 0 0 0q0.526-0.035 1.034-0.526l0.508-0.491q-0.42 0.245-0.806 0.35t-0.736 0.105-0.736-0.105-0.806-0.35l0.508 0.491t1.034 0.526v0zM14.213 25.145h-1.682q-0.21 0-0.333 0.053t-0.193 0.088q-0.070 0.105-0.088 0.21t0.053 0.245q0.14 0.385 0.403 0.666t0.368 0.35q0.105 0.105 0.28 0.175t0.385 0.070q0.175 0 0.333-0.070t0.263-0.175q0.315-0.35 0.508-0.666t0.228-0.42q0.035-0.070 0.035-0.175t-0.070-0.21q-0.070-0.070-0.193-0.105t-0.298-0.035v0zM8.642 12.251q-0.035 0.42 0.14 0.753l0.175 0.333q0-0.315 0.070-0.543t0.14-0.403q0.035 0.455 0.175 0.963t0.561 0.963q0.28 0.315 1.261 0.701t1.822-0.35q0.035 0.105 0.070 0.228t0.070 0.228q0.14 0.455 0 0.946l-0.14 0.491 0.42-0.596t0.35-1.226q0.455-0.035 0.841-0.333t0.35-0.753l-0.648 0.158t-1.349-0.683q-0.385-0.455-1.629-1.331t-3.031-0.42q0.175 0.035 0.368 0.088t0.403 0.123v0h-0.035q-0.14 0.070-0.245 0.263t-0.14 0.403v0zM10.254 12.146q0.806 0.455 1.507 1.034t1.016 1.069v0 0 0q-0.245 0.14-0.841 0.28t-1.296-0.385q-0.455-0.315-0.491-0.963t0.105-1.034v0zM19.469 25.145h-1.647q-0.175 0-0.315 0.035t-0.21 0.105q-0.070 0.105-0.070 0.21t0.035 0.175q0.035 0.105 0.228 0.42t0.508 0.666q0.105 0.105 0.263 0.175t0.333 0.070q0.21 0 0.385-0.070t0.28-0.175q0.105-0.070 0.368-0.35t0.403-0.666q0.070-0.14 0.053-0.245t-0.088-0.21q-0.070-0.035-0.193-0.088t-0.333-0.053v0zM18.242 14.739q-0.070 0.631 0.35 1.226l0.42 0.596-0.14-0.491t0-0.946q0.035-0.105 0.070-0.228t0.070-0.228q0.841 0.736 1.822 0.35t1.261-0.701q0.42-0.455 0.561-0.963t0.175-0.963q0.070 0.175 0.14 0.403t0.070 0.543l0.175-0.333t0.14-0.753q-0.035-0.21-0.14-0.403t-0.245-0.263h-0.035q0.21-0.070 0.403-0.123t0.368-0.088q-1.787-0.455-3.031 0.42t-1.629 1.331q-0.701 0.841-1.349 0.683l-0.648-0.158q-0.035 0.455 0.35 0.753t0.841 0.333v0zM19.223 14.248v0 0q0.315-0.491 1.016-1.069t1.507-1.034q0.14 0.385 0.105 1.034t-0.491 0.963q-0.701 0.526-1.296 0.385t-0.841-0.28v0 0 0zM24.829 19.434q-0.105 0.771-0.491 1.419t-0.876 1.069q-0.14-0.981-0.175-2.102t-0.035-1.401q0-0.631 0.28-1.016t0.385-0.455 0.228-0.14 0.263-0.14q0.736-0.385 1.507-0.946t0.771-1.507q0-0.666-0.315-1.016t-0.561-0.526q-0.035-0.035-0.070-0.053t-0.070-0.053q-0.070-0.070-0.14-0.123t-0.105-0.123q-0.175-0.42-0.175-1.191t0.105-0.911q0-0.035 0.438-0.736t0.228-1.472q-0.105-0.315-0.298-0.561t-0.508-0.385q-0.21-0.14-0.491-0.193t-0.596-0.088q0-0.070-0.018-0.158t-0.053-0.158q-0.035-0.105-0.053-0.228t0.018-0.228q0-0.21 0.018-0.368t0.088-0.263q0.35-0.561 0.999-0.771l0.648-0.21 0.666-0.14-0.455-0.526q0-0.035-0.683-0.508t-1.909-0.473q-0.315 0-0.666 0.053t-0.666 0.158q-1.051 0.315-1.787 1.069t-1.016 1.139q-0.105-0.035-0.245-0.088t-0.28-0.088q-0.175-0.666 0.158-1.401l0.333-0.736-0.508 0.035t-1.384 0.806q-0.105-0.28-0.228-0.823t0.158-1.279q-1.261 0.455-1.699 1.069t-0.508 1.244q-0.315-0.245-0.35-0.806t-0.070-0.736q-0.315 0.035-0.963 0.806t-0.613 1.892q-0.070 0.035-0.158 0.053t-0.158 0.053q-0.28-0.385-1.016-1.139t-1.787-1.069q-0.315-0.105-0.666-0.175t-0.666-0.070q-1.226 0-1.909 0.49t-0.683 0.526l-0.455 0.526 0.666 0.14 0.648 0.21t0.999 0.771q0.070 0.105 0.088 0.263t0.018 0.368q0.035 0.105 0.018 0.228t-0.053 0.228q-0.035 0.070-0.053 0.158t-0.018 0.158q-0.315 0.035-0.596 0.088t-0.49 0.193q-0.315 0.14-0.508 0.385t-0.298 0.561q-0.21 0.771 0.228 1.472t0.438 0.736q0.105 0.14 0.105 0.911t-0.175 1.191q-0.035 0.070-0.105 0.123t-0.14 0.123q-0.035 0.035-0.070 0.053t-0.070 0.053q-0.245 0.175-0.561 0.526t-0.315 1.016q0 0.946 0.771 1.507t1.507 0.946q0.14 0.070 0.263 0.14t0.228 0.14 0.385 0.455 0.28 1.016q0 0.28-0.035 1.401t-0.175 2.102q-0.491-0.42-0.876-1.069t-0.49-1.419l-0.771 0.981t-0.385 3.013q0.315 1.857 1.664 2.61t3.101 0.893q0.596 1.366 1.717 2.418t3.504 1.051v0 0 0 0 0 0q2.382 0 3.504-1.051t1.717-2.418q1.752-0.14 3.101-0.893t1.664-2.61q0.385-2.032-0.385-3.013l-0.771-0.981zM22.377 3.737q0.245-0.070 0.491-0.105t0.526-0.035q0.455 0 0.823 0.088t0.543 0.193q-0.105 0.035-0.245 0.123t-0.28 0.158q-0.105 0-0.245-0.018t-0.28-0.018q-0.455 0-0.858 0.123t-0.753 0.368q-0.526 0.385-0.788 0.718t-0.368 0.543q-0.105-0.035-0.193-0.088t-0.228-0.123q-0.035-0.035-0.105-0.070t-0.14-0.035q0.245-0.385 0.806-0.981t1.296-0.841v0zM23.568 4.753q-0.035 0.035-0.070 0.088t-0.070 0.088q-0.14 0.245-0.175 0.508t-0.070 0.508q0 0.28-0.053 0.526t-0.193 0.42q-0.175 0.035-0.333 0.070t-0.298 0.070q-0.105-0.105-0.245-0.263t-0.35-0.333q0.070-0.21 0.245-0.613t0.526-0.683q0.21-0.175 0.491-0.263t0.596-0.123v0zM7.766 4.158q-0.14-0.070-0.28-0.158t-0.245-0.123q0.175-0.105 0.543-0.193t0.823-0.088q0.28 0 0.526 0.035t0.491 0.105q0.736 0.245 1.296 0.841t0.806 0.981q-0.070 0-0.14 0.035t-0.105 0.070q-0.14 0.070-0.228 0.123t-0.193 0.088q-0.105-0.245-0.368-0.561t-0.788-0.701q-0.35-0.245-0.753-0.368t-0.858-0.123q-0.14 0-0.28 0.018t-0.245 0.018v0zM10.289 6.435q-0.21 0.175-0.35 0.333t-0.245 0.263q-0.14-0.035-0.298-0.070t-0.333-0.070l-0.631-2.137q0.315 0.035 0.596 0.123t0.491 0.263l0.771 1.296zM8.467 16.21q-0.105-0.035-0.228-0.105t-0.228-0.14q-0.631-0.35-1.174-0.736t-0.543-0.981q0-0.455 0.158-0.666t0.368-0.35l0.14-0.175q-0.035 0.315-0.070 0.561t-0.070 0.315l0.35-0.631t0.526-1.857q0.035-0.491-0.053-1.261t-0.228-1.156q0 0.21-0.018 0.42t-0.018 0.385q0-0.035-0.018-0.070t-0.053-0.035q-0.14-0.175-0.385-0.648t-0.14-0.858q0.035-0.14 0.123-0.245t0.263-0.21q0.14-0.070 0.35-0.105t0.491-0.035q0.526 0 1.034 0.123t0.823 0.193q1.051 0.35 2.137 1.104t1.436 1.034h0.035l0.315 0.245-0.21-0.35-0.771-0.981t-2.207-1.612q0.105-0.14 0.368-0.35t0.858-0.526q0.911-0.42 1.945-0.648t2.225-0.228 2.225 0.228 1.945 0.648q0.596 0.315 0.858 0.526t0.368 0.35q-1.436 0.631-2.207 1.612l-0.771 0.981-0.21 0.35 0.315-0.245h0.035q0.35-0.28 1.436-1.034t2.137-1.104q0.315-0.070 0.823-0.193t1.034-0.123q0.28 0 0.491 0.035t0.35 0.105q0.175 0.105 0.263 0.21t0.123 0.245q0.105 0.385-0.14 0.858t-0.385 0.648q-0.035 0-0.053 0.035t-0.018 0.070q0-0.175-0.018-0.385t-0.018-0.42q-0.14 0.385-0.228 1.156t-0.053 1.261q0.175 1.226 0.526 1.857l0.35 0.631q0-0.070-0.053-0.298t-0.088-0.543q0.035 0.035 0.070 0.053t0.070 0.053v0.035q0.21 0.14 0.368 0.35t0.158 0.666q0 0.596-0.543 0.981t-1.174 0.736q-0.105 0.070-0.228 0.14t-0.228 0.105q-0.385 0.21-0.718 0.701t-0.368 1.226q-0.035 0.631 0.035 1.909t0.175 2.365q-0.526 0.21-1.104 0.28t-1.139 0.105q-0.070-0.175-0.158-0.368t-0.158-0.368q-0.035-0.105-0.613-1.577t-0.858-1.927q0.21 1.647 0.631 2.996t0.701 2.050q-0.175-0.035-0.333-0.053t-0.333-0.018h-6.587q-0.175 0-0.333 0.018t-0.333 0.053q0.28-0.701 0.701-2.050t0.631-2.996q-0.28 0.455-0.858 1.927t-0.613 1.577q-0.070 0.175-0.158 0.368t-0.158 0.368q-0.561-0.035-1.139-0.105t-1.104-0.28q0.105-1.086 0.175-2.365t0.035-1.909q-0.035-0.736-0.368-1.226t-0.718-0.701v0zM10.745 24.163q-0.035 0-0.053 0.035l-0.018 0.035q-0.315 0.315-0.368 0.771t0.123 1.016q-0.946 0-1.857-0.42t-1.401-1.226q-0.526-0.841-0.473-1.98t0.263-1.349q0.455 1.436 1.734 1.962t2.435 0.596q-0.105 0.175-0.21 0.315t-0.175 0.245v0zM20.765 25.985q-0.28 0.771-1.244 2.19t-3.521 1.454q-2.558-0.035-3.521-1.454t-1.244-2.19q-0.175-0.455-0.158-0.771t0.193-0.526q0.14-0.14 0.455-0.28t0.946-0.14h6.657q0.631 0 0.946 0.14t0.455 0.28q0.175 0.21 0.193 0.526t-0.158 0.771v0zM24.829 24.374q-0.491 0.806-1.401 1.226t-1.857 0.42q0.175-0.561 0.123-1.016t-0.368-0.771l-0.018-0.035t-0.053-0.035q-0.070-0.105-0.175-0.245t-0.21-0.315q1.156-0.070 2.435-0.596t1.734-1.962q0.21 0.21 0.263 1.349t-0.473 1.98v0z"></path>
</svg>
