<!-- Generated by IcoMoon.io -->
<svg version="1.1" xmlns="http://www.w3.org/2000/svg" width="32" height="32" viewBox="0 0 32 32">
<title>gulp</title>
<path d="M21.581 1.714q-0.028 0-0.554 0.54t-1.207 1.278l-1.704 1.789-0.682 2.67-1.903 0.028q-2.67 0.057-4.204 0.27t-1.818 0.554q-0.057 0.057-0.043 0.099t0.099 0.128q0.369 0.284 1.747 0.483t3.153 0.256 3.621-0.028 3.096-0.341q0.909-0.17 1.136-0.383t-0.284-0.412q-0.369-0.17-1.434-0.341t-1.662-0.17q-0.17 0-0.227-0.014t-0.057-0.099q0-0.028 0.085-0.369t0.199-0.767l0.256-1.051 1.59-1.704q0.653-0.682 1.122-1.207t0.497-0.554q0.028-0.199-0.327-0.483t-0.497-0.17v0zM9.567 9.581q0 0.057 0.114 1.108t0.241 2.286 0.241 2.272 0.114 1.065q0.028 0.028 0.057-0.028l0.085-0.17q0.369-1.079 1.037-1.875t1.321-0.937q0.312-0.085 0.554 0t0.497 0.341q0.284 0.256 0.327 0.525t-0.156 0.383q-0.114 0.057-0.227-0.028t-0.227-0.312q-0.312-0.54-0.824-0.284t-1.079 1.25q-0.625 1.022-0.767 1.96t0.341 0.937q0.17 0 0.525-0.284t0.667-0.653q0.199-0.256 0.298-0.44t0.213-0.525q0.057-0.227 0.142-0.398t0.114-0.199 0.099-0.043 0.128-0.014q0.114 0.028 0.142 0.071t0.057 0.213q0 0.142-0.043 0.327t-0.128 0.44q-0.114 0.369-0.284 0.866t-0.426 1.378q-0.057 0.199-0.128 0.383t-0.099 0.213q-0.085 0.142-0.199 0.142t-0.17-0.142q-0.057-0.085-0.028-0.241t0.142-0.554q0.057-0.256 0.128-0.469t0.099-0.27q0-0.057-0.099 0.014t-0.27 0.241q-0.426 0.398-0.824 0.554t-0.625 0.014q-0.085-0.028-0.099-0.014t-0.014 0.099q0 0.341 0.213 2.329t0.241 2.045q0.142 0.17 0.923 0.383t1.69 0.355q0.71 0.114 2.272 0.114t2.272-0.114q0.596-0.085 1.193-0.227t0.909-0.256q0.454-0.17 0.54-0.44t0.341-2.485q0.114-1.079 0.199-1.86l0.085-0.781-0.128 0.085t-0.27 0.227q-0.341 0.284-0.596 0.412t-0.511 0.128q-0.227 0-0.341-0.057t-0.17-0.199q-0.057-0.17 0.043-0.369t0.412-0.596q0.369-0.454 0.469-0.596t0.099-0.227q0-0.199-0.341-0.043t-0.568 0.44q-0.085 0.114-0.199 0.256t-0.17 0.256q-0.142 0.227-0.44 0.923t-0.497 1.236q-0.142 0.398-0.284 0.596t-0.284 0.199q-0.085 0-0.185-0.085t-0.099-0.142q0-0.114 0.128-0.454t0.383-0.881q0.17-0.341 0.284-0.596l0.114-0.256q0-0.028-0.071 0.028t-0.185 0.142q-0.227 0.199-0.483 0.312t-0.398 0.114q-0.17 0-0.312-0.085t-0.142-0.17-0.043-0.071-0.298 0.156q-0.426 0.227-0.639 0.142t-0.213-0.454v-0.227l-0.227 0.256q-0.341 0.312-0.71 0.412t-0.625-0.071q-0.142-0.114-0.142-0.412t0.17-0.781q0.284-0.852 0.511-1.207t0.454-0.241q0.114 0.085 0.085 0.241t-0.227 0.582q-0.341 0.682-0.355 1.008t0.27 0.241 0.611-0.497 0.554-1.008q0.057-0.17 0.128-0.312t0.128-0.199q0.085-0.085 0.199-0.071t0.17 0.156q0.028 0.085-0.014 0.256t-0.213 0.568q-0.142 0.341-0.213 0.568t-0.071 0.369q0 0.17 0.028 0.213t0.142 0.043q0.142-0.028 0.341-0.156t0.227-0.241q0.142-0.426 0.824-2.116t0.767-1.775 0.142-0.099 0.142 0.014 0.128 0.071 0.071 0.099q0 0.057-0.071 0.27t-0.185 0.44q-0.426 0.966-0.852 2.088t-0.426 1.207 0.014 0.128 0.043 0.043q0.114 0 0.369-0.17t0.54-0.426q0.284-0.227 0.383-0.355t0.156-0.298q0.17-0.511 0.298-0.667t0.298-0.071q0.085 0.028 0.099 0.085t-0.014 0.17v0.199q0.028 0 0.114-0.071t0.17-0.156q0.341-0.312 0.625-0.383t0.54 0.099q0.114 0.057 0.142 0.128t0.028 0.241q0 0.199-0.17 0.511t-0.54 0.738q-0.142 0.142-0.227 0.27t-0.085 0.156 0.043 0.043 0.099 0.014q0.085 0 0.596-0.398t0.682-0.596q0.057-0.057 0.156-0.937t0.327-2.954q0.17-1.562 0.284-2.67l0.114-1.108q0-0.028-0.099 0t-0.213 0.085q-0.341 0.114-1.022 0.227t-1.534 0.199q-0.483 0.057-1.42 0.085t-1.96 0.028-1.96-0.014-1.392-0.071q-0.88-0.085-1.633-0.199t-1.094-0.227l-0.426-0.142v0.142zM11.271 23.669l0.114 0.213t0.284 0.497l0.398 0.682 0.17 2.272 0.17 2.301 0.17 0.142q0.312 0.284 1.079 0.426t1.96 0.17q1.363 0.028 2.343-0.128t1.321-0.469l0.199-0.142 0.114-2.329 0.142-2.301 0.369-0.625q0.142-0.284 0.256-0.483l0.114-0.199q0-0.028-0.114 0t-0.284 0.085q-0.568 0.199-1.576 0.355t-2.002 0.213q-1.108 0.057-2.585-0.128t-2.329-0.469q-0.142-0.057-0.227-0.071l-0.085-0.014z"></path>
</svg>
