<!-- Generated by IcoMoon.io -->
<svg version="1.1" xmlns="http://www.w3.org/2000/svg" width="32" height="32" viewBox="0 0 32 32">
<title>html5</title>
<path d="M3.313 1.6l2.307 25.934 10.381 2.866 10.381-2.866 2.307-25.934h-25.375zM8.101 7.751l-0.070-0.839h7.969v3.181h-4.474l0.28 3.25h4.194v3.181h-7.095l-0.804-8.773zM23.305 14.183l-0.769 8.388-0.035 0.524-6.501 1.817-6.501-1.817-0.454-4.998h3.181l0.21 2.551 3.565 0.944 3.53-0.944 0.384-4.124h-3.915v-3.181h7.375l-0.070 0.839zM23.864 7.751l-0.14 1.608-0.070 0.734h-7.654v-3.181h7.934l-0.070 0.839z"></path>
</svg>
