<?xml version="1.0" encoding="iso-8859-1"?>
<!-- Generator: Adobe Illustrator 16.0.0, SVG Export Plug-In . SVG Version: 6.00 Build 0)  -->
<!DOCTYPE svg PUBLIC "-//W3C//DTD SVG 1.1//EN" "http://www.w3.org/Graphics/SVG/1.1/DTD/svg11.dtd">
<svg version="1.1" id="Capa_1" xmlns="http://www.w3.org/2000/svg" xmlns:xlink="http://www.w3.org/1999/xlink" x="0px" y="0px"
	 width="98.328px" height="98.329px" viewBox="0 0 98.328 98.329" style="enable-background:new 0 0 98.328 98.329;"
	 xml:space="preserve">
<g>
	<g>
		<path d="M73.229,45.588c-4.565,2.174-8.287,8.774-12.641,4.419c-2.646-2.872-5.785-7.441-9.392-12.609
			c-3.9-5.556-8.872-10.333-14.722-4.875c-6.531,6.143-11.017,22.813-11.406,31.392l61.711,0.021
			C85.367,58.895,79.882,42.42,73.229,45.588z"/>
		<circle cx="72.941" cy="28.32" r="7.588"/>
		<path d="M96.072,11.002H15.777c-1.245,0-2.256,1.01-2.256,2.255v11.406H2.256C1.011,24.664,0,25.673,0,26.918v58.152
			c0,1.246,1.011,2.255,2.256,2.255h80.295c1.245,0,2.256-1.011,2.256-2.255V73.666h11.266c1.244,0,2.256-1.01,2.256-2.255V13.257
			C98.328,12.013,97.316,11.002,96.072,11.002z M78.752,81.272H6.055V30.719h7.466v35.148c-1.133,4.377-1.831,8.583-1.973,11.712
			l61.712,0.02c-0.271-0.964-0.693-2.35-1.242-3.933h6.734V81.272z M92.273,67.61H19.576V17.058h72.697V67.61z"/>
	</g>
</g>
<g>
</g>
<g>
</g>
<g>
</g>
<g>
</g>
<g>
</g>
<g>
</g>
<g>
</g>
<g>
</g>
<g>
</g>
<g>
</g>
<g>
</g>
<g>
</g>
<g>
</g>
<g>
</g>
<g>
</g>
</svg>
