<!-- Generated by IcoMoon.io -->
<svg version="1.1" xmlns="http://www.w3.org/2000/svg" width="33" height="32" viewBox="0 0 33 32">
<title>jasmine</title>
<path d="M15.438 13.344h2.375l0.594-0.844v-6.406h-3.594v6.406l0.625 0.844zM13.875 16.219l0.75-2.313-0.594-0.813-6.125-1.969-1.125 3.406 6.125 2 0.969-0.313zM16.125 18.563l-1.938-1.406-0.969 0.313-3.781 5.188 2.906 2.125 3.781-5.219v-1zM19.063 17.156l-1.938 1.406v1l3.781 5.219 2.906-2.125-3.781-5.188-0.969-0.313zM18.625 13.906l0.75 2.313 0.969 0.313 6.125-2-1.125-3.406-6.125 1.969-0.594 0.813zM16.625 0.5q-3.219 0-6.031 1.219t-4.922 3.328-3.328 4.922-1.219 6.031q0 3.188 1.219 6.016t3.328 4.938 4.922 3.328 6.031 1.219 6.031-1.219 4.922-3.328 3.328-4.922 1.219-6.031-1.219-6.031-3.328-4.922-4.922-3.328-6.031-1.219v0 0zM16.625 3.625q2.563 0 4.813 0.984t3.922 2.656 2.641 3.922 0.969 4.813-0.969 4.813-2.641 3.922-3.922 2.656-4.813 0.984-4.813-0.984-3.922-2.656-2.656-3.922-0.984-4.813 0.984-4.813 2.656-3.922 3.922-2.656 4.813-0.984zM26 19.438l-4.625-1.5 0.281-0.969 4.656 1.531-0.313 0.938zM20.094 11.969l-0.813-0.563 2.875-3.969 0.813 0.594-2.875 3.938zM13.219 11.938l-2.875-3.938 0.813-0.594 2.875 3.938-0.813 0.594zM7.219 19.375l-0.313-0.938 4.656-1.5 0.313 0.938-4.656 1.5zM16.094 25.875h1v-4.875h-1v4.875z"></path>
</svg>
