<!-- Generated by IcoMoon.io -->
<svg version="1.1" xmlns="http://www.w3.org/2000/svg" width="28" height="32" viewBox="0 0 28 32">
<title>javascript</title>
<path d="M20.25 14.188q-0.75 0.063-1.375 0.328t-1.094 0.734q-0.5 0.469-0.734 1.063t-0.234 1.344q0 1.125 0.484 1.922t1.484 1.422q0.25 0.156 0.641 0.328t0.984 0.453q0.844 0.344 1.219 0.547t0.563 0.422q0.25 0.25 0.313 0.625t-0.094 0.688q-0.031 0.063-0.109 0.156t-0.141 0.156q-0.219 0.25-0.594 0.375t-0.813 0.125q-0.781 0-1.375-0.328t-1.063-1.016q-0.063-0.094-0.109-0.156l-0.047-0.063q-0.031 0-1.047 0.578t-1.047 0.609 0 0.078 0.094 0.172q0.625 1.031 1.563 1.625t2.219 0.75q0.313 0.063 0.844 0.063t0.844-0.063q0.813-0.094 1.422-0.375t1.078-0.719q0.5-0.469 0.75-1.094t0.25-1.406q0-0.5-0.094-0.906t-0.281-0.781q-0.125-0.281-0.266-0.469t-0.359-0.406q-0.406-0.438-1.016-0.797t-1.703-0.828q-0.813-0.344-1.172-0.547t-0.516-0.391q-0.188-0.188-0.266-0.406t-0.047-0.5q0-0.188 0.063-0.344t0.219-0.313q0.188-0.188 0.422-0.281t0.547-0.094q0.406 0 0.672 0.109t0.516 0.359q0.094 0.094 0.188 0.219t0.156 0.188q0.063 0.094 0.109 0.156t0.047 0.031q0.063 0 1.031-0.625t0.969-0.656l-0.063-0.109t-0.156-0.234q-0.188-0.281-0.484-0.594t-0.547-0.469q-0.438-0.281-0.922-0.438t-1.078-0.219q-0.313-0.031-0.438-0.031t-0.406 0.031v0zM12 19l-0.031 4.688-0.031 0.219q-0.063 0.219-0.141 0.359t-0.203 0.266q-0.156 0.156-0.391 0.234t-0.578 0.078q-0.531 0-0.875-0.234t-0.688-0.859q-0.063-0.094-0.109-0.156l-0.047-0.063q-0.031 0-0.344 0.188t-0.719 0.438l-1.063 0.656 0.094 0.156q0.344 0.688 0.938 1.219t1.344 0.75q0.781 0.281 1.703 0.25t1.672-0.313q0.875-0.375 1.391-1.109t0.641-1.828q0.031-0.094 0.031-1.344v-8.281h-2.594v4.688zM25.063 30.063h-22.031q-1.25 0-2.141-0.906t-0.891-2.156v-22q0-1.25 0.891-2.156t2.141-0.906h22.031q1.25 0 2.141 0.906t0.891 2.156v22q0 1.25-0.891 2.156t-2.141 0.906zM3.031 3.375q-0.656 0-1.141 0.469t-0.484 1.156v22q0 0.688 0.484 1.156t1.141 0.469h22.031q0.656 0 1.141-0.469t0.484-1.156v-22q0-0.688-0.484-1.156t-1.141-0.469h-22.031z"></path>
</svg>
