<!-- Generated by IcoMoon.io -->
<svg version="1.1" xmlns="http://www.w3.org/2000/svg" width="30" height="32" viewBox="0 0 30 32">
<title>less</title>
<path d="M3.25 0.75q-0.906 0-1.578 0.641t-0.672 1.516v0.031q0 0.063 0.047 0.125t0.047 0.125l2.406 21.406q0 0.25 0.094 0.469t0.219 0.375q0.156 0.344 0.406 0.578t0.563 0.391l9.469 4.625q0.219 0.125 0.453 0.172t0.484 0.047 0.484-0.047 0.453-0.172l9.438-4.625q0.563-0.313 0.891-0.859t0.297-1.172l2.313-21.25q0-0.063 0.016-0.141t0.016-0.141v-0.031q0-0.813-0.641-1.438t-1.516-0.625h-23.688zM10.906 7.719h1.875v1.656h-0.594q-0.625 0-1.016 0.078t-0.578 0.266q-0.188 0.156-0.281 0.5t-0.094 0.875v1.219q0 0.594-0.094 1.016t-0.313 0.672q-0.188 0.281-0.531 0.453t-0.813 0.266q0.469 0.094 0.813 0.281t0.531 0.469q0.219 0.25 0.313 0.672t0.094 1.016v1.219q0 0.531 0.094 0.875t0.281 0.5q0.188 0.188 0.578 0.266t1.016 0.078h0.594v1.656h-1.875q-0.969 0-1.672-0.156t-1.141-0.5q-0.438-0.313-0.656-0.828t-0.219-1.234v-1.438q0-0.563-0.109-0.953t-0.359-0.609q-0.219-0.219-0.656-0.328t-1.063-0.109h-0.531v-1.656h0.531q0.625 0 1.063-0.094t0.656-0.313q0.25-0.219 0.359-0.609t0.109-0.953v-1.531q0-0.719 0.219-1.234t0.656-0.828q0.438-0.344 1.141-0.5t1.672-0.156v0zM17.313 7.719h1.875q0.969 0 1.672 0.156t1.141 0.5q0.438 0.313 0.656 0.828t0.219 1.234v1.531q0 0.563 0.109 0.953t0.359 0.609q0.219 0.188 0.656 0.297t1.063 0.109h0.531v1.656h-0.531q-0.625 0-1.063 0.109t-0.656 0.328q-0.25 0.219-0.359 0.609t-0.109 0.953v1.438q0 0.719-0.219 1.234t-0.656 0.828q-0.438 0.344-1.141 0.5t-1.672 0.156h-1.875v-1.656h0.594q0.625 0 1.016-0.078t0.578-0.266q0.188-0.156 0.281-0.5t0.094-0.875v-1.219q0-0.594 0.094-1.016t0.313-0.672q0.188-0.281 0.531-0.469t0.844-0.281q-0.5-0.094-0.844-0.266t-0.531-0.453q-0.219-0.25-0.313-0.672t-0.094-1.016v-1.219q0-0.531-0.094-0.875t-0.281-0.5q-0.188-0.188-0.578-0.266t-1.016-0.078h-0.594v-1.656z"></path>
</svg>
