<?xml version="1.0" encoding="iso-8859-1"?>
<!-- Generator: Adobe Illustrator 19.0.0, SVG Export Plug-In . SVG Version: 6.00 Build 0)  -->
<svg version="1.1" id="Layer_1" xmlns="http://www.w3.org/2000/svg" xmlns:xlink="http://www.w3.org/1999/xlink" x="0px" y="0px"
	 viewBox="0 0 512 512" style="enable-background:new 0 0 512 512;" xml:space="preserve">
<g>
	<g>
		<path d="M85.407,220.025c-19.51-19.499-51.251-19.505-70.75,0.006C5.206,229.482,0,242.043,0,255.408
			c0,13.366,5.206,25.926,14.657,35.372l41.79,41.79c12.941-31.333,36.28-57.961,66.828-74.675L85.407,220.025z"/>
	</g>
</g>
<g>
	<g>
		<path d="M147.233,283.177c-40.504,18.316-68.819,58.963-68.819,106.234v100.058c0,9.212,7.464,16.676,16.676,16.676h44.237
			l115.437-115.437L147.233,283.177z"/>
	</g>
</g>
<g>
	<g>
		<path d="M409.573,283.064L186.491,506.145h275.48c9.212,0,16.676-7.464,16.676-16.676V389.411
			C478.647,342.041,450.213,301.325,409.573,283.064z"/>
	</g>
</g>
<g>
	<g>
		<path d="M495.324,5.855h-33.353c-32.849,0-61.236,19.139-74.818,46.808C359.792,23.901,321.267,5.855,278.531,5.855
			c-82.757,0-150.087,67.33-150.087,150.087c0,12.26,1.64,24.117,4.426,35.532c0.201,1.531,0.543,3.015,1.131,4.386
			c17.545,63.414,75.612,110.17,144.531,110.17c68.912,0,126.975-46.747,144.525-110.151c0.597-1.387,0.944-2.888,1.145-4.44
			c2.781-11.403,4.417-23.249,4.417-35.497c0-17.561-3.19-34.353-8.757-50.029h8.757c45.979,0,83.382-37.403,83.382-83.382
			C512,13.319,504.536,5.855,495.324,5.855z M393.934,172.618h-59.815H222.943h-59.815c-0.787-5.462-1.332-11-1.332-16.676
			s0.545-11.214,1.332-16.676h43.138v16.676c0,9.212,7.464,16.676,16.676,16.676s16.676-7.464,16.676-16.676v-16.676h77.823v16.676
			c0,9.212,7.464,16.676,16.676,16.676s16.676-7.464,16.676-16.676v-16.676h43.138c0.787,5.462,1.332,11,1.332,16.676
			S394.721,167.156,393.934,172.618z"/>
	</g>
</g>
<g>
</g>
<g>
</g>
<g>
</g>
<g>
</g>
<g>
</g>
<g>
</g>
<g>
</g>
<g>
</g>
<g>
</g>
<g>
</g>
<g>
</g>
<g>
</g>
<g>
</g>
<g>
</g>
<g>
</g>
</svg>
