<!-- Generated by IcoMoon.io -->
<svg version="1.1" xmlns="http://www.w3.org/2000/svg" width="32" height="32" viewBox="0 0 32 32">
<title>nodejs</title>
<path d="M16 30.4q-0.285 0-0.571-0.089t-0.535-0.232l-3.533-2.070q-0.393-0.214-0.303-0.321t0.196-0.143q0.535-0.178 0.785-0.285t0.821-0.428q0.071-0.036 0.143-0.036t0.107 0.036l2.712 1.606q0.071 0.036 0.178 0.036t0.143-0.036l10.564-6.067q0.071-0.071 0.125-0.143t0.054-0.143v-12.205q0-0.071-0.054-0.161t-0.125-0.125l-10.528-6.067q-0.107-0.071-0.196-0.071t-0.161 0.071l-10.528 6.067q-0.071 0.036-0.125 0.125t-0.054 0.161v12.205q0 0.071 0.054 0.143t0.125 0.143l2.891 1.642q1.178 0.607 1.856 0.125t0.678-1.196v-12.027q0-0.107 0.089-0.196t0.196-0.089h1.356q0.107 0 0.196 0.089t0.089 0.196v12.027q0 1.57-0.803 2.445t-2.302 0.874q-0.464 0-0.946-0.089t-1.481-0.589l-2.784-1.57q-0.5-0.321-0.803-0.839t-0.303-1.088v-12.205q0-0.571 0.303-1.088t0.803-0.839l10.564-6.067q0.5-0.285 1.106-0.285t1.106 0.285l10.564 6.067q0.5 0.321 0.803 0.839t0.303 1.088v12.205q0 0.571-0.303 1.088t-0.803 0.839l-10.564 6.067q-0.25 0.143-0.535 0.232t-0.571 0.089v0zM19.248 22.013q-3.462 0-4.514-1.285t-1.053-2.641q0-0.107 0.089-0.196t0.196-0.089h1.392q0.107 0 0.196 0.071t0.089 0.178q0.143 1.035 0.839 1.57t2.766 0.535q1.677 0 2.427-0.41t0.749-1.303q0-0.5-0.571-0.874t-3.141-0.625q-2.177-0.214-3.426-0.857t-1.249-2.391q0-1.606 1.267-2.498t3.515-0.892q2.534 0 3.819 0.892t1.463 2.784q0 0.071-0.018 0.143t-0.054 0.107q-0.071 0.036-0.125 0.071t-0.125 0.036h-1.356q-0.107 0-0.196-0.071t-0.089-0.178q-0.25-1.106-0.964-1.517t-2.355-0.41q-1.82 0-2.266 0.5t-0.446 0.964q0 0.571 0.589 0.839t3.051 0.589q2.427 0.321 3.604 0.964t1.178 2.355-1.374 2.677-3.908 0.964v0z"></path>
</svg>
