<?xml version="1.0" encoding="iso-8859-1"?>
<!-- Generator: Adobe Illustrator 19.0.0, SVG Export Plug-In . SVG Version: 6.00 Build 0)  -->
<svg version="1.1" id="Capa_1" xmlns="http://www.w3.org/2000/svg" xmlns:xlink="http://www.w3.org/1999/xlink" x="0px" y="0px"
	 viewBox="0 0 488.617 488.617" style="enable-background:new 0 0 488.617 488.617;" xml:space="preserve">
<g>
	<path d="M471.704,66.595l-221.2-65.8c-3.1-1-7.3-1-11.4,0l-222.1,65.8c-17.7,4.7-17,20.3-17,20.5v253.7c0,9.4,5.2,16.6,13.5,19.8
		l223.2,75.4c0.6,0.3,6.8,2.9,14.9,0.5l49.5-17.1c13.9,13,32.5,21,53,21c14.1,0,27.3-3.8,38.6-10.3l52.3,52.3
		c12.5,11.5,25,4.2,29.1,0c8.3-8.3,8.3-20.8,0-29.1l-52.4-52.4c4.3-7.6,7.3-16,8.8-25l44.6-15.2c8.3-3.1,13.5-11.4,13.5-19.8v-253.8
		C488.704,85.495,488.704,70.495,471.704,66.595z M223.504,388.595l-183-62.4v-211.1l183,62.6V388.595z M244.804,140.895l-156.9-53
		l156.4-46.6l156.5,46.6L244.804,140.895z M354.104,399.595c-20.4,0-36.9-16.5-36.9-36.9s16.5-36.9,36.9-36.9s36.9,16.5,36.9,36.9
		C391.004,383.095,374.504,399.595,354.104,399.595z M448.104,326.195l-22,7.7c-11.4-28.6-39.4-48.8-72-48.8
		c-42.8,0-77.5,34.7-77.5,77.5c0,7.3,1,14.3,2.9,20.9l-14.3,5v-211l183-62.4v211.1H448.104z"/>
</g>
<g>
</g>
<g>
</g>
<g>
</g>
<g>
</g>
<g>
</g>
<g>
</g>
<g>
</g>
<g>
</g>
<g>
</g>
<g>
</g>
<g>
</g>
<g>
</g>
<g>
</g>
<g>
</g>
<g>
</g>
</svg>
