<!-- Generated by IcoMoon.io -->
<svg version="1.1" xmlns="http://www.w3.org/2000/svg" width="32" height="32" viewBox="0 0 32 32">
<title>perldocs</title>
<path d="M16 1.6q-3 0-5.62 1.14t-4.56 3.080-3.080 4.58-1.14 5.6q0 3 1.14 5.62t3.080 4.58 4.56 3.080 5.62 1.12 5.62-1.12 4.56-3.080 3.080-4.58 1.14-5.62q0-2.96-1.14-5.6t-3.080-4.58-4.56-3.080-5.62-1.14v0zM13.56 26.44q-0.12 0.24-0.54 0.14t-0.9-0.26q-0.52-0.2-1.94-0.9t-2.42-1.82q-1-1.16-1.5-2.6t-0.46-2.88q0.040-1.48 0.42-2.28t1.060-1.72q0.68-0.96 2.12-2.080t2-1.48q0.6-0.36 1.28-0.92t1.080-1.040q0.36-0.48 0.56-0.94t0.16-1.14q0-0.68 0.020-1.22t0.020-0.78q-0.040-0.2 0-0.52t0.24-0.24 0.24 0.3 0.040 0.46-0.040 1.12-0.12 1.88q-0.080 0.96-0.7 1.78t-1.22 1.38q-0.56 0.6-1.88 2.040t-1.96 2.36q-0.64 0.88-0.94 1.98t-0.22 2.1 0.4 2 1.28 2.040q0.92 1.040 1.6 1.6t1.16 0.8l0.88 0.44t0.28 0.4v0zM14.64 27.88q-0.16 0.2-0.36 0.3t-0.24 0.020 0.14-0.16 0.34-0.28q0.16-0.16 0.18-0.4t0.14-0.24q0.080-0.040 0.040 0.26t-0.24 0.5v0zM15.2 25.72q-0.32 0.4-1.32-0.6t-1.68-1.8-1.24-2.24-0.6-2.72q0-1.24 0.56-2.36t1.080-1.84q0.48-0.72 1.28-1.76t1.080-1.6 0.54-1.18 0.34-1.42q0.080-0.76 0.040-2.76l-0.040-2 0.020-0.8t0.22-0.64q0.2 0.12 0.26 0.78t0.060 1.38v3.040t-0.2 3.12q-0.24 0.84-0.72 1.72t-1 1.68q-0.56 0.8-1.1 2.24t-0.5 2.52q0.040 1.040 0.52 2.48t0.96 2.16q0.44 0.72 1.020 1.54t0.42 1.060v0zM16.080 28.48q-0.080 0-0.080-0.24v-1.16t0.080-0.24 0.080 0.24v1.16t-0.080 0.24v0zM18.040 28.2q-0.040 0.040-0.26-0.040t-0.38-0.28-0.2-0.5 0.040-0.3q0.12 0 0.14 0.26t0.18 0.42q0.16 0.2 0.34 0.28t0.14 0.16v0zM24.12 23.64q-0.84 1-1.9 1.66t-2.26 1.14q-0.4 0.16-0.7 0.26t-0.66-0.22q-0.52-0.52-1.080-0.68t-1.24-0.32q-0.2-0.080-0.34-0.38t-0.18-0.46q-0.24-0.52-0.42-1.040t-0.3-1.040q-0.64-2.6-0.3-5.18t0.98-5.1q0.28-1.080 0.46-2.16t0.18-2.2q0-0.6-0.060-1.18t-0.14-1.14q-0.040-0.28-0.060-0.64t0.26 0.12q0.12 0.16 0.3 0.060t0.18 0.1q0.040 0.16 0.040 0.34v0.34q0 0.44 0.020 0.88t0.1 0.84q0.16 1.040 1.16 1.72t1.8 1.16q1.76 1.12 3.74 2.68t2.34 3.88q0.28 1.84-0.2 3.48t-1.72 3.080v0z"></path>
</svg>
