<!-- Generated by IcoMoon.io -->
<svg version="1.1" xmlns="http://www.w3.org/2000/svg" width="30" height="32" viewBox="0 0 30 32">
<title>perl</title>
<path d="M20.031 2.094q-0.156 0-0.328 0.016t-0.359 0.016q-0.531 0.094-1.047 0.281t-1.047 0.344q-0.781 0.281-1.484 0.766t-1.047 1.172q-0.063 0.156-0.359 0.578t-0.484 0.641q-0.344 0.344-0.766 0.656t-0.891 0.563q-0.531 0.281-1.031 0.688t-1.031 1.063q-0.563 0.656-0.734 1.281t-0.422 1.375q-0.438 0.375-0.719 0.016t-0.156-0.734q0.25-0.906 0.594-1.781t0.281-1.844q-0.156-1.281-0.875-2.641t-2.469-1.453q-0.375 0-0.594 0.094t-0.625 0.438q-0.313 0.219-0.563 0.328t-0.75 0.203q-0.563 0.125-1.156 0.125t-1.125 0.219q-0.25 0.125-0.5 0.469t-0.344 0.625q-0.031 0.25 0.094 0.469t0.375 0.344q0.563 0.219 1.297 0.25t0.828 0.719q-0.188 0.688-0.547 1.25t-0.328 1.281q-0.031 0.75 0.047 1.438t0.141 1.438q0.094 0.938 0.703 1.547t1.141 1.359q0.781 0.906 2.078 1.609t2.672 0.328q0.469-0.125 0.703-0.094t0.422 0.25q0.094 0.156 0.125 0.328t-0.063 0.516q-0.063 0.406-0.063 1.047t0.063 1.078q0.063 0.344 0.109 0.766t0.047 0.672 0.047 0.5 0.109 0.5q0.031 0.125 0.047 0.344t0.047 0.719q0 0.344 0.016 0.641t0.047 0.359q0.063 0.25 0.031 0.531t-0.125 1q-0.063 0.313-0.203 0.781t-0.266 0.719q-0.063 0.125-0.234 0.391t-0.328 0.484l0.031 0.031q0.25-0.031 0.625-0.047t0.906-0.047q0.094-0.313 0.141-0.594t0.047-0.5q0.031-0.219 0.063-0.453t0.063-0.391 0.063-0.375 0.063-0.406q0.031-0.375 0.094-0.563t0.25-0.594q0.094-0.156 0.188-0.359t0.125-0.297q0.063-0.188 0.078-0.344t0.016-0.688q0-0.5 0.016-0.703t0.047-0.484q0.125-0.5 0.203-0.75t0.266-0.594q0.25-0.5 0.313-0.688t0.094-0.625q0.031-0.5 0.125-0.781t0.313-0.469q0.094-0.094 0.219-0.156t0.281-0.063h0.313q0.344 0 0.516 0.047t0.266 0.172q0.094 0.094 0.109 0.266t-0.047 0.484q-0.063 0.125-0.094 0.344t-0.063 0.375q-0.031 0.375-0.109 0.625t-0.266 0.531q-0.25 0.375-0.281 0.563t-0.031 0.781v0.641t0.063 0.297q0.031 0.094 0.094 0.188t0.094 0.156q0.125 0.125 0.422 0.344t0.641 0.438 0.688 0.516 0.594 0.578q0.219 0.281 0.516 0.578t0.328 0.672q0 0.25-0.156 0.563t-0.438 0.531q-0.125 0.125-0.25 0.203t-0.406 0.172q-0.344 0.156-0.5 0.281t-0.188 0.25v0.094h1.297t1.297 0.031q0.063-0.063 0.125-0.141t0.125-0.172q0.094-0.188 0.172-0.281t0.203-0.094q0.094 0.031 0.203 0.125t0.266 0.313q0.063 0.094 0.141 0.172l0.141 0.141q0.25 0 0.516 0.016t0.516 0.047q0.094-0.094 0.156-0.25t0.125-0.375v-0.25t-0.031-0.281q-0.063-0.406-0.203-0.609t-0.453-0.422q-0.125-0.094-0.219-0.188t-0.156-0.125q-0.094-0.125-0.125-0.297t0.031-0.328q0.031-0.188 0.234-0.5t0.453-0.625q0.219-0.281 0.375-0.484t0.344-0.516q0.063-0.125 0.172-0.234l0.516-0.516t0.156-0.219l0.125-0.188v-1.031q-0.031-0.531 0.016-1.078t0.141-1.078q0.063-0.656 0.313-1.219t0.594-1.125q0.219-0.375 0.344-0.5t0.313-0.125q0.25 0 0.391 0.234t0.234 0.734q0.063 0.469 0.281 0.906t0.406 0.875q0.094 0.344 0.203 0.563t0.328 0.625 0.391 0.797 0.234 0.672q0.031 0.125 0.047 0.344t0.016 0.625q0 0.594 0.031 0.906t0.094 0.625q0.063 0.219 0.094 0.781t0 1q0 0.281-0.031 0.406t-0.219 0.563q-0.219 0.594-0.313 0.875t-0.125 0.594q-0.063 0.313-0.109 0.453t-0.203 0.453q-0.031 0-0.031 0.016v0.047q0.813 0.125 1.328 0.203t0.797 0.141q0.031-0.219 0-0.453t-0.031-0.453q0.031-0.031-0.047-0.375t-0.234-0.75q-0.219-0.656-0.25-0.906t0.094-0.688q0-0.094 0.031-0.313l0.063-0.438q0-0.469 0.047-0.672t0.172-0.516q0.125-0.25 0.172-0.422t0.078-0.422q0.031-0.344-0.016-0.563t-0.203-0.5q-0.125-0.25-0.141-0.422t0.047-0.484 0.063-0.891-0.063-0.797q-0.094-0.219-0.125-1t0-1.875l0.188-1.75q0.188-0.719 0.344-1.016t0.313-0.297 0.297 0.219 0.234 0.625q0.063 0.375 0.063 0.75t0.094 0.75q0.094 0.5-0.047 1t-0.453 0.938q-0.156 0.281-0.219 0.484t-0.031 0.328 0.141 0.234 0.234 0.141q0.031 0 0.094-0.016t0.125-0.047 0.188-0.156 0.375-0.469q0.219-0.25 0.375-0.484t0.188-0.297q0.25-1 0.266-1.813t-0.109-1.813q0-0.625-0.156-0.969t-0.656-0.813q-0.938-1.031-1.547-2t-1.141-2.188q-0.188-0.281-0.438-0.578t-0.438-0.484q-0.344-0.313-0.547-0.656t-0.359-0.813q-0.25-0.531-0.5-1.141t-0.625-1.109q-0.344-0.344-0.703-0.672t-0.891-0.516q-0.469-0.188-0.906-0.25t-0.906-0.031v0zM19.313 17.844q0.031 0 0.078 0.016t0.078 0.047q0.125 0.063 0.172 0.25t0.109 0.813q0.031 0.313 0.078 0.672t0.078 0.547q0.125 0.75 0.141 1.094t-0.016 0.594q0 0.156-0.031 0.391t-0.031 0.422q-0.031 0.563-0.156 0.922t-0.469 0.891q-0.125 0.156-0.234 0.344t-0.172 0.281q-0.094 0.188-0.203 0.313t-0.234 0.188q-0.094 0.031-0.234 0.031t-0.297-0.063q-0.188-0.094-0.484-0.297t-0.484-0.359q-0.188-0.188-0.297-0.328t-0.328-0.484q-0.25-0.375-0.313-0.516t-0.063-0.328q0-0.219 0.109-0.391t0.359-0.391q0.094-0.094 0.297-0.266t0.391-0.328q0.344-0.344 0.422-0.484t0.172-0.609q0.094-0.406 0.156-0.547t0.406-0.578q0.125-0.156 0.203-0.344t0.234-0.688q0.125-0.438 0.203-0.578t0.203-0.203q0.031-0.031 0.078-0.031h0.078z"></path>
</svg>
