<!-- Generated by IcoMoon.io -->
<svg version="1.1" xmlns="http://www.w3.org/2000/svg" width="32" height="32" viewBox="0 0 32 32">
<title>prolog</title>
<path d="M11.001 11.564q0 0.176-0.141 0.317t-0.317 0.141-0.299-0.141-0.123-0.317 0.123-0.299 0.299-0.123 0.317 0.123 0.141 0.299v0zM11.177 9.522q-1.021 0-1.778 0.739t-0.757 1.796 0.757 1.796 1.778 0.739q1.056 0 1.813-0.739t0.757-1.796-0.757-1.796-1.813-0.739v0zM11.247 13.676q-0.634 0-1.074-0.458t-0.44-1.091 0.44-1.091 1.074-0.458 1.091 0.458 0.458 1.091-0.458 1.091-1.091 0.458v0zM22.197 12.022q0.176 0 0.299-0.141t0.123-0.317-0.123-0.299-0.299-0.123-0.299 0.123-0.123 0.299 0.123 0.317 0.299 0.141v0zM22.971 14.697q1.056 0 1.796-0.739t0.739-1.796-0.739-1.796-1.796-0.739-1.796 0.739-0.739 1.796 0.739 1.796 1.796 0.739v0zM22.901 10.613q0.634 0 1.074 0.458t0.44 1.091-0.44 1.074-1.074 0.44-1.091-0.44-0.458-1.074 0.458-1.091 1.091-0.458v0zM28.78 15.507q0-2.605-0.986-4.911t-2.676-4.031q-0.317-0.986-0.282-2.13t0.422-1.743q0.141-0.211 0.299-0.422t0.299-0.422q-1.408-0.246-2.588 0.141t-1.989 1.408q-0.106 0.141-0.194 0.211t-0.194 0.106q-1.127-0.458-2.359-0.722t-2.535-0.264-2.553 0.264-2.377 0.722q-0.106-0.035-0.194-0.106t-0.194-0.211q-0.81-1.021-1.989-1.408t-2.588-0.141q0.141 0.211 0.299 0.423t0.299 0.422q0.387 0.634 0.423 1.796t-0.282 2.112q-1.69 1.725-2.658 4.014t-0.968 4.894q0 1.197 0.229 2.359t0.651 2.253q0.106 0.282 0.194 0.581t0.194 0.581 0.176 0.546 0.176 0.546q0.211 0.81 0.352 1.62t0.176 1.62v0.915q-0.035 0.070-0.035 0.158v0.158l2.605-2.359q0.352 0.317 0.827 0.616t1.039 0.546q-0.599 0.387-0.951 1.039t-0.352 1.426q0 0.634 0.264 1.215t0.722 0.968l-0.070-0.282t-0.035-0.317q0-0.88 0.616-1.479t1.496-0.599q0.845 0 1.461 0.599t0.616 1.479q0 0.176-0.035 0.352l-0.070 0.352q0.493-0.422 0.775-1.021t0.282-1.267q0-0.387-0.088-0.739t-0.264-0.669q0.528 0.035 1.074 0.070t1.109 0.035q0.352 0 0.722-0.018t0.757-0.018q-0.176 0.282-0.246 0.616t-0.070 0.722q0 0.634 0.264 1.215t0.687 0.968q-0.035-0.141-0.053-0.282t-0.018-0.317q0-0.88 0.616-1.479t1.461-0.599q0.88 0 1.496 0.599t0.616 1.479q0 0.176-0.035 0.352t-0.106 0.352q0.493-0.422 0.792-1.021t0.299-1.267q0-0.704-0.299-1.303t-0.792-1.021q0.599-0.211 1.109-0.475t0.898-0.581l2.253 2.042q-0.035-0.070-0.035-0.158v-1.074q0.035-0.81 0.176-1.62t0.352-1.62q0.070-0.282 0.158-0.546t0.194-0.546q0.106-0.317 0.194-0.616t0.229-0.616v0q0.387-1.056 0.599-2.183t0.211-2.289v0zM4.733 19.309l-0.493-1.444 0.634 0.599 0.986-0.352-1.127 1.197zM4.98 20.331l0.634 0.599 0.986-0.352-1.162 1.197-0.458-1.444zM6.529 18.183l0.599 0.634 0.986-0.246-1.232 1.091-0.352-1.479zM6.036 24.274l-0.458-1.444 0.634 0.563 0.986-0.317-1.162 1.197zM7.621 22.232l-0.458-1.444 0.634 0.599 0.986-0.352-1.162 1.197zM8.712 18.641l0.599 0.634 1.021-0.282-1.232 1.091-0.387-1.444zM16.035 20.718q-0.176-0.282-0.352-0.581t-0.317-0.581l-0.669-1.338q-0.317-0.599-0.739-1.25t-0.563-1.355q-0.669 0.528-1.479 0.827t-1.725 0.299q-2.077 0-3.556-1.479t-1.479-3.591q0-2.077 1.479-3.556t3.556-1.479q0.563 0 1.091 0.106t0.986 0.317q0.246 0.106 0.44 0.211t0.405 0.246q0.986 0.669 1.567 1.76t0.581 2.359v0.387t-0.035 0.352q0.176-0.070 0.387-0.106t0.422-0.035q0.246 0 0.475 0.053t0.475 0.123q-0.035-0.176-0.053-0.387t-0.018-0.422q0-0.317 0.035-0.634t0.106-0.634l0.018-0.018t0.018-0.053q0-0.070 0.035-0.141t0.035-0.141q0.035-0.070 0.053-0.123t0.018-0.088q0.035-0.035 0.035-0.053v-0.018q0.563-1.408 1.831-2.289t2.852-0.88q2.112 0 3.591 1.479t1.479 3.591q0 2.077-1.479 3.556t-3.591 1.479q-0.775 0-1.496-0.229t-1.32-0.616q-0.106-0.070-0.211-0.158t-0.211-0.158q-0.070 0.352-0.246 0.687t-0.387 0.722q-0.246 0.493-0.511 0.986t-0.511 0.986l-1.021 1.866zM25.541 18.359l-0.387 1.479-1.197-1.127 0.986 0.282 0.599-0.634zM21.739 19.169l1.021 0.282 0.599-0.634-0.387 1.444-1.232-1.091zM24.415 22.408l-1.127-1.197 0.986 0.317 0.634-0.563-0.493 1.444zM25.999 24.415l-1.127-1.197 0.986 0.352 0.634-0.563-0.493 1.408zM26.633 21.95l-1.162-1.197 0.986 0.317 0.634-0.563-0.458 1.444zM27.337 19.486l-1.127-1.197 0.986 0.352 0.634-0.599-0.493 1.444zM16.035 12.761q-0.986 0-1.672 0.687t-0.687 1.672q0 0.775 0.422 1.479t0.775 1.373l0.282 0.563t0.317 0.563q0.106 0.246 0.246 0.511t0.317 0.511l0.88-1.655q0.246-0.422 0.458-0.845t0.458-0.845q0.211-0.422 0.387-0.792t0.176-0.863q0-0.986-0.687-1.672t-1.672-0.687v0z"></path>
</svg>
