<!-- Generated by IcoMoon.io -->
<svg version="1.1" xmlns="http://www.w3.org/2000/svg" width="32" height="32" viewBox="0 0 32 32">
<title>ruby-alt</title>
<path d="M2.756 16.382q0.127-0.424 0.318-1.189t0.573-1.528q0.891-1.825 2.059-3.417t2.547-2.908 3.035-2.398 3.523-1.889q0.722-0.297 1.549-0.424t1.634-0.127q0.976 0 1.613 0.637t0.722 1.656q0.042 0.509 0.021 1.061t-0.233 1.061q-0.891 2.377-2.165 4.351t-2.908 3.587-3.651 2.865-4.394 2.144q-0.17 0.042-0.361 0.085t-0.403 0.042q-1.613 0.255-2.568-0.658t-0.913-2.95v0zM19.184 11.67q2.632-0.17 5.2-0.361t5.285-0.361q-0.212-0.17-0.34-0.318t-0.255-0.233l-4.669-3.736t-4.669-3.778q-0.212-0.17-0.403-0.467t-0.488-0.679q0.976 0 1.825-0.021t1.656 0.021q0.976 0 1.953-0.021t1.953 0.149q2.038 0.382 3.099 1.656t1.019 3.354q-0.042 1.953-0.212 3.905t-0.297 3.905q-0.212 3.014-0.446 5.985t-0.446 5.943q-0.042 0.509-0.106 1.040t-0.106 1.167q-1.061-0.976-2.101-1.91t-2.101-1.825q-0.127-0.127-0.255-0.276t-0.255-0.233q-1.273-0.807-1.889-1.974t-0.87-2.611q-0.382-1.868-0.891-3.714t-0.976-3.714q-0.085-0.212-0.127-0.424t-0.085-0.467v0zM6.152 26.91q0.594-0.085 1.104-0.149t1.019-0.191q0.212-0.042 0.403-0.233t0.233-0.403q0.467-1.486 0.913-2.971t0.87-3.014q0.042-0.127 0.106-0.255t0.149-0.34q2.674 0.891 5.391 1.762t5.476 1.719q-1.443 1.486-2.993 2.717t-3.247 2.335q3.056 0.212 6.113 0.446t6.113 0.488v0.17q-0.679 0.042-1.337 0.085t-1.295 0.085l-3.905 0.255t-3.884 0.255l-3.863 0.255t-3.884 0.255q-0.637 0.042-1.252 0.085t-1.21 0.042q-2.632-0.042-4.054-1.443t-1.464-4.033q-0.042-1.486 0.085-2.95t0.212-2.95q0-0.085 0.127-0.191t0.212-0.233q0.127 0.127 0.297 0.233t0.212 0.233q0.807 1.825 1.571 3.651t1.528 3.608q0.042 0.17 0.106 0.318t0.149 0.361v0z"></path>
</svg>
