<!-- Generated by IcoMoon.io -->
<svg version="1.1" xmlns="http://www.w3.org/2000/svg" width="25" height="32" viewBox="0 0 25 32">
<title>scala</title>
<path d="M24.188 0q-0.656 0.75-3.469 1.406t-6.406 1.203-7.313 0.969-6.219 0.703v7.5q2.406-0.188 6.109-0.516t7.328-0.844 6.438-1.219 3.438-1.672zM24.156 10.156q-0.625 0.75-3.438 1.406t-6.406 1.203-7.328 0.969-6.203 0.672v7.531q2.375-0.219 6.094-0.547t7.344-0.828 6.438-1.203 3.406-1.672zM24.188 20.219q-0.656 0.75-3.453 1.406t-6.406 1.203-7.328 0.953-6.219 0.688v7.531q2.406-0.219 6.125-0.547t7.328-0.828 6.438-1.219 3.422-1.688zM20.688 8.406q-0.25 0-0.469 0.047t-0.344 0.078q-0.094 0.031-0.125 0.047l-0.094 0.047-18.938 2.5 0.031 0.781q3.125 0.156 5.984 0.75t5.625 1.391 5.5 1.672 5.578 1.563l0.531 0.125 0.031-0.5 0.094-6.844 0.031-0.063-0.031-0.031-0.031-0.078t-0.094-0.141q-0.063-0.094-0.156-0.188t-0.25-0.188q-0.875-0.594-1.609-0.781t-1.266-0.188v0zM20.719 9.188q0.375 0 0.953 0.141t1.391 0.672q0.063 0.031 0.109 0.078l0.078 0.078-0.125 6.219q-2.344-0.563-4.641-1.281t-4.625-1.422-4.719-1.297-4.922-0.938l15.719-2.094 0.094-0.031 0.016-0.016t0.109-0.047 0.234-0.047 0.328-0.016v0zM20.656 18.5q-0.281 0-0.484 0.047t-0.359 0.078l-0.188 0.094-18.906 2.531 0.063 0.781q3.094 0.156 5.953 0.766t5.609 1.406 5.469 1.688 5.563 1.578l0.563 0.156v-0.5l0.125-6.938v-0.063l-0.031-0.063-0.109-0.203t-0.391-0.391q-0.906-0.563-1.641-0.766t-1.234-0.203v0zM20.656 19.281q0.375 0 0.969 0.156t1.375 0.656q0.125 0.094 0.156 0.125t0.031 0.063l-0.125 6.313q-2.344-0.594-4.625-1.328t-4.594-1.438-4.703-1.297-4.953-0.969l15.719-2.094 0.094-0.063 0.016-0.016t0.109-0.047q0.094 0 0.219-0.031t0.313-0.031v0z"></path>
</svg>
