<!-- Generated by IcoMoon.io -->
<svg version="1.1" xmlns="http://www.w3.org/2000/svg" width="32" height="32" viewBox="0 0 32 32">
<title>script</title>
<path d="M0 2.469v27.063h32v-27.063h-32zM29.531 27.063h-27.063v-19.688h27.063v19.688zM14.219 10.344l-0.906 3.563h1.938l0.906-3.563h2.125l-0.938 3.563h1.844v2.031h-2.344l-0.688 2.813h1.938v2.031h-2.438l-0.906 3.563h-2.094l0.875-3.563h-1.938l-0.906 3.563h-2.094l0.875-3.563h-1.969v-2.031h2.5l0.688-2.813h-2.094v-2.031h2.625l0.906-3.563h2.094zM14.75 15.938h-1.969l-0.688 2.813h1.938zM20.75 21.656h2.531v2.688h-2.531v-2.688zM20.75 10.125h2.531v6.219l-0.313 3.406h-1.875l-0.344-3.406v-6.219z"></path>
</svg>
