<!-- Generated by IcoMoon.io -->
<svg version="1.1" xmlns="http://www.w3.org/2000/svg" width="32" height="32" viewBox="0 0 32 32">
<title>spring</title>
<path d="M15.047 30.786c-0.108-0.007-0.365-0.030-0.572-0.051s-0.488-0.055-0.625-0.076c-0.138-0.021-0.419-0.069-0.625-0.106s-0.512-0.103-0.679-0.144c-0.167-0.041-0.489-0.128-0.715-0.194s-0.628-0.199-0.893-0.296c-0.265-0.098-0.619-0.236-0.786-0.308s-0.537-0.248-0.822-0.391c-0.285-0.143-0.711-0.377-0.947-0.52s-0.614-0.389-0.84-0.548-0.481-0.345-0.568-0.415c-0.152-0.123-0.154-0.128-0.071-0.151 0.047-0.013 0.159-0.025 0.25-0.027 0.112-0.002 0.246-0.044 0.416-0.129 0.147-0.074 0.313-0.193 0.401-0.289 0.083-0.090 0.19-0.25 0.239-0.357s0.106-0.298 0.127-0.425c0.028-0.169 0.027-0.287-0.003-0.438-0.023-0.114-0.089-0.305-0.148-0.425-0.060-0.122-0.18-0.286-0.27-0.369-0.090-0.083-0.265-0.198-0.39-0.256-0.15-0.070-0.308-0.113-0.471-0.127-0.167-0.014-0.315-0.003-0.467 0.037-0.122 0.031-0.291 0.1-0.375 0.152s-0.199 0.137-0.256 0.189-0.157 0.178-0.223 0.28c-0.066 0.102-0.145 0.278-0.174 0.392s-0.054 0.298-0.054 0.411c0 0.151-0.012 0.201-0.045 0.186-0.025-0.011-0.225-0.223-0.446-0.472s-0.51-0.59-0.643-0.757-0.37-0.488-0.527-0.712-0.411-0.617-0.565-0.874c-0.154-0.257-0.398-0.708-0.543-1.003s-0.326-0.689-0.405-0.875c-0.079-0.187-0.208-0.524-0.287-0.75s-0.2-0.604-0.268-0.84-0.165-0.614-0.216-0.84c-0.051-0.226-0.124-0.604-0.164-0.84s-0.087-0.574-0.107-0.75-0.052-0.611-0.072-0.965c-0.024-0.423-0.025-0.888-0.003-1.358 0.019-0.393 0.058-0.9 0.087-1.127s0.070-0.519 0.091-0.649c0.021-0.13 0.069-0.387 0.107-0.57s0.119-0.526 0.18-0.762c0.061-0.236 0.184-0.646 0.273-0.911s0.244-0.683 0.343-0.929 0.308-0.703 0.465-1.016c0.156-0.313 0.381-0.73 0.498-0.926s0.31-0.5 0.428-0.677c0.118-0.176 0.28-0.411 0.361-0.521s0.308-0.402 0.505-0.647 0.632-0.721 0.967-1.056c0.335-0.335 0.754-0.729 0.931-0.876s0.507-0.406 0.733-0.576c0.226-0.17 0.617-0.439 0.868-0.599s0.669-0.405 0.929-0.545c0.26-0.14 0.649-0.334 0.865-0.431s0.514-0.225 0.661-0.285 0.453-0.173 0.679-0.251c0.226-0.078 0.548-0.18 0.715-0.228s0.465-0.124 0.661-0.171c0.197-0.047 0.526-0.118 0.733-0.157s0.504-0.089 0.661-0.11 0.455-0.058 0.661-0.082c0.209-0.024 0.81-0.043 1.358-0.043 0.545 0 1.157 0.020 1.376 0.045 0.216 0.025 0.562 0.069 0.768 0.099s0.536 0.085 0.733 0.123c0.197 0.038 0.572 0.125 0.834 0.194s0.656 0.182 0.875 0.253 0.653 0.231 0.964 0.357c0.311 0.126 0.745 0.319 0.965 0.43s0.545 0.282 0.722 0.38c0.177 0.099 0.498 0.292 0.715 0.43s0.578 0.387 0.804 0.554 0.548 0.418 0.715 0.557 0.485 0.426 0.705 0.637 0.425 0.384 0.454 0.384 0.117-0.087 0.195-0.193 0.229-0.327 0.334-0.491c0.105-0.164 0.269-0.435 0.365-0.602s0.284-0.525 0.419-0.796c0.135-0.271 0.26-0.484 0.278-0.472s0.132 0.33 0.253 0.707c0.121 0.378 0.252 0.791 0.29 0.919s0.117 0.377 0.173 0.554 0.169 0.555 0.249 0.84c0.081 0.285 0.193 0.679 0.25 0.875s0.183 0.671 0.281 1.054c0.098 0.383 0.234 0.938 0.303 1.233s0.174 0.777 0.234 1.072c0.060 0.295 0.143 0.729 0.184 0.965s0.090 0.517 0.107 0.625 0.072 0.518 0.121 0.911c0.049 0.393 0.106 0.98 0.126 1.304s0.036 0.927 0.036 1.34c-0 0.413-0.024 1.032-0.053 1.376s-0.070 0.77-0.092 0.947-0.079 0.547-0.129 0.822c-0.049 0.275-0.154 0.75-0.232 1.054s-0.204 0.739-0.279 0.965-0.21 0.596-0.3 0.823-0.258 0.613-0.374 0.858c-0.116 0.245-0.328 0.654-0.472 0.91s-0.406 0.682-0.582 0.947c-0.176 0.265-0.369 0.547-0.43 0.625s-0.199 0.256-0.308 0.393-0.379 0.453-0.599 0.701c-0.22 0.248-0.602 0.641-0.848 0.872s-0.669 0.598-0.94 0.814c-0.271 0.216-0.717 0.54-0.992 0.721s-0.669 0.426-0.875 0.545c-0.206 0.119-0.537 0.297-0.735 0.396s-0.529 0.252-0.736 0.341-0.606 0.243-0.886 0.344c-0.281 0.101-0.734 0.246-1.007 0.323s-0.733 0.188-1.023 0.245-0.654 0.123-0.812 0.144-0.423 0.056-0.59 0.077-0.746 0.043-1.286 0.049c-0.541 0.007-1.071 0.006-1.179-0.001zM20.002 26.216c0.396-0.028 0.822-0.067 0.947-0.087s0.363-0.053 0.53-0.075c0.167-0.021 0.408-0.056 0.536-0.076s0.28-0.050 0.339-0.066c0.059-0.016 0.204-0.049 0.322-0.073s0.362-0.083 0.543-0.13c0.181-0.047 0.47-0.131 0.643-0.188s0.467-0.163 0.654-0.235c0.187-0.073 0.541-0.233 0.788-0.357s0.585-0.309 0.75-0.413c0.166-0.104 0.414-0.273 0.552-0.376s0.387-0.308 0.554-0.455c0.167-0.147 0.425-0.402 0.574-0.566s0.367-0.428 0.486-0.585 0.296-0.415 0.394-0.572c0.098-0.157 0.268-0.455 0.378-0.661s0.274-0.557 0.365-0.779c0.091-0.222 0.213-0.552 0.272-0.733s0.154-0.505 0.212-0.722 0.136-0.554 0.174-0.75c0.038-0.197 0.085-0.462 0.106-0.59s0.054-0.377 0.074-0.554c0.020-0.177 0.056-0.648 0.079-1.047 0.023-0.409 0.031-0.947 0.017-1.233-0.013-0.279-0.040-0.748-0.058-1.043s-0.050-0.673-0.069-0.84-0.050-0.424-0.069-0.572c-0.019-0.147-0.060-0.438-0.092-0.646s-0.105-0.634-0.163-0.947-0.13-0.689-0.161-0.837-0.071-0.332-0.089-0.411-0.065-0.28-0.104-0.447c-0.039-0.167-0.098-0.408-0.13-0.536s-0.071-0.289-0.086-0.357-0.071-0.286-0.124-0.482c-0.053-0.197-0.145-0.526-0.204-0.733s-0.156-0.536-0.215-0.733c-0.059-0.197-0.213-0.679-0.342-1.072s-0.242-0.736-0.252-0.761c-0.010-0.026-0.051-0.042-0.092-0.036-0.052 0.008-0.133 0.116-0.273 0.368-0.11 0.197-0.286 0.485-0.391 0.641s-0.255 0.365-0.332 0.465c-0.077 0.099-0.206 0.269-0.287 0.378s-0.397 0.446-0.703 0.75c-0.306 0.305-0.693 0.667-0.86 0.806s-0.432 0.35-0.59 0.468-0.479 0.344-0.715 0.501c-0.236 0.157-0.599 0.383-0.808 0.502s-0.538 0.297-0.733 0.395-0.578 0.274-0.854 0.393c-0.275 0.119-0.717 0.289-0.983 0.378s-0.611 0.195-0.768 0.236c-0.157 0.041-0.439 0.107-0.625 0.147s-0.428 0.088-0.536 0.107-0.317 0.050-0.465 0.071-0.421 0.053-0.607 0.072c-0.187 0.019-0.573 0.050-0.858 0.069s-0.816 0.051-1.179 0.070c-0.364 0.020-0.886 0.052-1.161 0.072s-0.637 0.051-0.804 0.070c-0.167 0.019-0.408 0.049-0.536 0.069s-0.393 0.068-0.59 0.108c-0.197 0.040-0.478 0.105-0.625 0.144s-0.459 0.137-0.693 0.218-0.596 0.225-0.804 0.32-0.499 0.241-0.647 0.324c-0.147 0.083-0.348 0.2-0.447 0.261s-0.299 0.198-0.447 0.305-0.423 0.329-0.612 0.493c-0.189 0.164-0.488 0.463-0.665 0.664s-0.442 0.543-0.59 0.759-0.342 0.53-0.432 0.697-0.222 0.44-0.293 0.607c-0.071 0.167-0.168 0.416-0.214 0.554s-0.115 0.371-0.153 0.518c-0.038 0.147-0.086 0.356-0.107 0.465s-0.055 0.294-0.077 0.413c-0.021 0.119-0.038 0.588-0.038 1.042s0.017 0.912 0.038 1.016 0.054 0.271 0.073 0.369c0.019 0.098 0.053 0.251 0.074 0.339s0.075 0.273 0.12 0.411c0.045 0.138 0.139 0.376 0.209 0.531s0.187 0.379 0.26 0.5 0.232 0.349 0.355 0.508c0.123 0.159 0.315 0.373 0.428 0.476s0.295 0.248 0.405 0.321c0.11 0.074 0.292 0.185 0.405 0.248 0.156 0.087 0.249 0.114 0.389 0.114 0.101 0 0.242-0.015 0.313-0.033s0.214-0.050 0.317-0.071c0.103-0.021 0.264-0.055 0.357-0.076s0.596-0.133 1.117-0.251c0.521-0.118 1.116-0.255 1.322-0.304s0.488-0.121 0.625-0.158c0.138-0.038 0.419-0.11 0.625-0.161s0.496-0.125 0.643-0.165c0.147-0.039 0.316-0.085 0.375-0.103s0.171-0.049 0.25-0.071c0.079-0.022 0.191-0.053 0.25-0.069s0.294-0.087 0.523-0.158 0.538-0.169 0.687-0.219c0.149-0.050 0.404-0.14 0.567-0.2s0.462-0.175 0.667-0.255 0.657-0.288 1.006-0.459c0.349-0.172 0.809-0.412 1.022-0.535s0.533-0.312 0.709-0.421c0.177-0.11 0.502-0.325 0.723-0.479s0.592-0.422 0.824-0.596c0.232-0.174 0.606-0.473 0.831-0.664s0.605-0.532 0.845-0.757c0.24-0.225 0.65-0.646 0.911-0.935s0.548-0.613 0.637-0.721 0.266-0.333 0.392-0.5 0.391-0.545 0.587-0.84c0.197-0.295 0.501-0.805 0.676-1.135s0.324-0.593 0.332-0.585c0.008 0.008-0.045 0.197-0.117 0.42s-0.178 0.527-0.236 0.674-0.192 0.461-0.297 0.697c-0.106 0.236-0.291 0.614-0.412 0.84s-0.342 0.612-0.492 0.858-0.366 0.581-0.481 0.746c-0.115 0.165-0.276 0.39-0.357 0.5s-0.277 0.362-0.434 0.558-0.414 0.502-0.571 0.679c-0.157 0.177-0.456 0.496-0.663 0.709s-0.586 0.575-0.841 0.805-0.585 0.515-0.733 0.634c-0.147 0.119-0.467 0.364-0.71 0.545s-0.581 0.42-0.75 0.531-0.453 0.288-0.63 0.392c-0.177 0.104-0.559 0.31-0.848 0.458s-0.748 0.362-1.018 0.478-0.886 0.343-1.367 0.506-0.924 0.307-0.983 0.322c-0.059 0.015-0.373 0.108-0.697 0.206s-0.967 0.3-1.429 0.449c-0.462 0.148-1.065 0.344-1.34 0.435s-0.623 0.213-0.774 0.271c-0.151 0.058-0.293 0.129-0.317 0.157-0.034 0.042-0.031 0.057 0.020 0.076 0.035 0.013 0.322-0.005 0.638-0.040s0.624-0.069 0.683-0.076 0.525-0.013 1.036-0.014c0.511-0.001 1.090 0.006 1.286 0.016s0.655 0.035 1.018 0.055c0.364 0.021 0.902 0.051 1.197 0.066s1.195 0.031 2.001 0.033c0.962 0.003 1.712-0.013 2.185-0.047z"></path>
</svg>
