<!-- Generated by IcoMoon.io -->
<svg version="1.1" xmlns="http://www.w3.org/2000/svg" width="32" height="32" viewBox="0 0 32 32">
<title>stylus</title>
<path d="M5.222 13.332q0.251 0 0.448 0.036t0.34 0.107 0.233 0.143 0.090 0.179q0 0.143-0.036 0.269t-0.107 0.304q-0.072 0.143-0.125 0.269t-0.090 0.233q-0.036 0.036-0.072 0.036t-0.072-0.036l-0.018-0.036t-0.018-0.072q0.036-0.072 0.036-0.179v-0.251q0-0.179-0.036-0.304t-0.107-0.233q-0.107-0.107-0.215-0.143t-0.251-0.036q-0.179 0-0.34 0.054t-0.269 0.161-0.179 0.286-0.072 0.358 0.054 0.358 0.161 0.322q0.072 0.179 0.179 0.34t0.251 0.304l0.43 0.716q0.072 0.179 0.125 0.376t0.054 0.448q0 0.394-0.161 0.716t-0.483 0.537-0.734 0.322-0.949 0.107q-0.358 0-0.662-0.054t-0.519-0.197q-0.215-0.107-0.322-0.251t-0.107-0.286q0-0.036 0.018-0.090t0.054-0.125q0.036-0.107 0.072-0.179t0.107-0.179q0.036-0.072 0.107-0.161t0.107-0.197l0.286-0.286h0.072t0.072 0.036 0.036 0.072-0.036 0.072q-0.072 0.036-0.107 0.107l-0.072 0.143t-0.054 0.179-0.018 0.215q0 0.215 0.054 0.376t0.197 0.304q0.143 0.107 0.322 0.179t0.358 0.072q0.322 0 0.537-0.090t0.394-0.233q0.143-0.179 0.233-0.376t0.090-0.412-0.054-0.412-0.161-0.376q-0.072-0.179-0.179-0.358l-0.644-1.074q-0.072-0.179-0.125-0.358t-0.054-0.394q0-0.286 0.125-0.519t0.376-0.448q0.251-0.179 0.609-0.286t0.824-0.107v0zM11.309 13.44q0.036 0.036 0.054 0.072t0.018 0.072-0.054 0.072-0.161 0.036h-0.34t-0.412 0.036q-0.215 0-0.448 0.018t-0.483 0.054q-0.215 0.537-0.394 1.056t-0.322 1.056q-0.143 0.501-0.215 0.931t-0.072 0.752q0 0.358 0.143 0.555t0.43 0.197 0.609-0.251 0.68-0.752q0.036-0.036 0.072-0.036t0.036 0.036q0.036 0.036 0.054 0.072t-0.018 0.072q-0.179 0.322-0.412 0.591t-0.519 0.483q-0.322 0.251-0.591 0.358t-0.555 0.107-0.501-0.072-0.358-0.215q-0.143-0.107-0.215-0.304t-0.072-0.448q0-0.322 0.090-0.77t0.233-1.020 0.34-1.146 0.448-1.146q-0.286 0.036-0.555 0.072t-0.519 0.107l-0.054-0.054t0.018-0.054q0.036-0.072 0.072-0.107l0.107-0.107q0.072-0.036 0.161-0.089t0.197-0.089 0.197-0.054 0.197-0.018h0.358l0.286-0.645t0.286-0.609q0.179-0.322 0.322-0.591t0.322-0.519q0.072-0.072 0.161-0.143t0.197-0.107q0.107-0.072 0.233-0.125t0.233-0.089 0.197-0.054 0.161-0.018 0.107 0.018 0 0.054q-0.179 0.286-0.358 0.609t-0.358 0.68q-0.215 0.358-0.376 0.734t-0.34 0.77q0.215 0 0.43-0.018t0.43-0.018h0.824zM24.773 2.34q0.179 0 0.322 0.036t0.215 0.107q0.107 0.107 0.179 0.215t0.143 0.251q0.036 0.143 0.036 0.286t-0.036 0.322-0.090 0.358-0.161 0.358q-0.036 0.036-0.054 0.036t-0.054-0.036q-0.036 0-0.054-0.036t-0.054-0.072q0.036-0.143-0.018-0.251t-0.161-0.179q-0.107-0.107-0.286-0.143t-0.43-0.036q-0.465 0-0.913 0.161t-0.913 0.519q-0.465 0.322-0.913 0.77t-0.877 1.021q-0.43 0.537-0.841 1.182t-0.806 1.361q-0.358 0.716-0.68 1.468t-0.609 1.504q-0.286 0.788-0.501 1.54t-0.394 1.504q-0.143 0.788-0.233 1.468t-0.090 1.289q0 0.358 0.107 0.519t0.286 0.161q0.143 0 0.269-0.054t0.233-0.161q0.143-0.107 0.286-0.286t0.322-0.394h0.107q0.036 0.036 0.054 0.072t-0.018 0.107q-0.215 0.322-0.483 0.591t-0.555 0.519q-0.286 0.215-0.573 0.322t-0.501 0.107-0.358-0.054-0.251-0.197q-0.072-0.107-0.107-0.269t-0.036-0.34q0-0.537 0.107-1.182t0.322-1.432 0.519-1.611 0.662-1.719q0.394-0.859 0.824-1.737t0.895-1.737q0.501-0.859 1.003-1.647t1.038-1.468 1.056-1.253 1.056-1.003 1.038-0.644 0.967-0.215v0zM5.043 29.66q-0.179 0-0.304-0.054t-0.233-0.125-0.179-0.197-0.107-0.233q-0.036-0.143-0.054-0.304t0.018-0.34 0.090-0.358 0.161-0.358q0.036-0.036 0.054-0.036t0.054 0.036 0.072 0.054 0.036 0.054q-0.036 0.143 0.018 0.251t0.161 0.179q0.107 0.107 0.286 0.143t0.43 0.036q0.465 0 0.931-0.161t0.931-0.483q0.43-0.358 0.877-0.806t0.877-0.985q0.466-0.573 0.859-1.217t0.788-1.361q0.358-0.716 0.698-1.468t0.591-1.504q0.286-0.752 0.501-1.522t0.394-1.522q0.143-0.752 0.233-1.45t0.089-1.307q0-0.322-0.089-0.501t-0.304-0.179q-0.107 0-0.251 0.054t-0.251 0.161q-0.143 0.143-0.286 0.304t-0.322 0.376q-0.036 0.036-0.054 0.036t-0.054-0.036-0.036-0.072v-0.072q0.215-0.358 0.483-0.627t0.555-0.483q0.322-0.215 0.591-0.34t0.519-0.125q0.215 0 0.358 0.072t0.215 0.179q0.072 0.143 0.125 0.286t0.054 0.358q0 0.501-0.107 1.164t-0.358 1.414q-0.215 0.788-0.501 1.629t-0.68 1.701q-0.358 0.859-0.788 1.737t-0.931 1.737-1.003 1.647-1.038 1.468q-0.537 0.716-1.056 1.271t-1.056 0.985-1.038 0.662-0.967 0.233v0zM20.046 19.026q-0.465 0-0.698-0.251t-0.233-0.752q0-0.179 0.018-0.394t0.090-0.43q0.036-0.251 0.090-0.483t0.125-0.483q0.107-0.251 0.197-0.501t0.197-0.537q0.107-0.251 0.251-0.483t0.286-0.483q-0.107 0.072-0.233 0.161t-0.233 0.161-0.215 0.161-0.179 0.197h-0.072t-0.072-0.036v-0.143q0.179-0.215 0.465-0.412t0.609-0.412q0.358-0.215 0.698-0.376t0.662-0.304q0.036 0 0.090 0.018t0.054 0.054q0.036 0 0.036 0.036v0.107q-0.358 0.466-0.645 0.967t-0.501 1.038-0.322 1.074-0.107 1.038q0 0.322 0.090 0.483t0.304 0.161q0.143 0 0.322-0.090t0.394-0.304q0.215-0.179 0.43-0.43t0.465-0.573q0.215-0.322 0.448-0.68t0.483-0.752 0.465-0.806 0.43-0.841q0-0.036 0.107-0.107t0.251-0.143q0.179-0.072 0.34-0.107t0.34-0.036q0.143 0 0.197 0.054t-0.018 0.125q-0.143 0.286-0.286 0.555t-0.251 0.519l-0.215 0.501t-0.179 0.501-0.125 0.501-0.090 0.501-0.054 0.519-0.018 0.555q0 0.358 0.090 0.537t0.269 0.179 0.394-0.161 0.465-0.483q0.036-0.036 0.054-0.036t0.054 0.036q0.036 0 0.054 0.036t0.018 0.072q-0.215 0.286-0.412 0.519t-0.448 0.376q-0.215 0.143-0.43 0.215t-0.394 0.072q-0.465 0-0.698-0.269t-0.233-0.806q0-0.573 0.107-1.128t0.286-1.128q-0.43 0.752-0.859 1.361t-0.931 1.074q-0.465 0.465-0.859 0.68t-0.716 0.215v0zM29.248 13.332q0.251 0 0.448 0.036t0.34 0.107 0.215 0.143 0.072 0.179q0 0.143-0.018 0.269t-0.090 0.304q-0.072 0.143-0.125 0.269t-0.125 0.233q0 0.036-0.036 0.036t-0.072-0.036q-0.036 0-0.054-0.036t-0.018-0.072q0.036-0.072 0.054-0.179t0.018-0.251q0-0.179-0.036-0.304t-0.107-0.233q-0.107-0.107-0.215-0.143t-0.251-0.036q-0.179 0-0.34 0.054t-0.269 0.161q-0.143 0.107-0.197 0.286t-0.054 0.358 0.054 0.358 0.125 0.322q0.107 0.179 0.215 0.34t0.215 0.304q0.143 0.179 0.251 0.358t0.179 0.358q0.107 0.179 0.161 0.376t0.054 0.448q0 0.394-0.161 0.716t-0.483 0.537-0.752 0.322-0.931 0.107q-0.394 0-0.68-0.054t-0.501-0.197q-0.215-0.107-0.34-0.251t-0.125-0.286q0-0.036 0.018-0.090t0.054-0.125q0.036-0.107 0.090-0.179t0.090-0.179q0.072-0.072 0.125-0.161t0.125-0.197l0.286-0.286h0.072t0.072 0.036q0 0.036 0.018 0.072t-0.018 0.072q-0.072 0.036-0.125 0.107t-0.090 0.143-0.054 0.179-0.018 0.215q0 0.215 0.072 0.376t0.215 0.304q0.143 0.107 0.304 0.179t0.376 0.072q0.286 0 0.519-0.090t0.376-0.233q0.179-0.179 0.251-0.376t0.072-0.412-0.036-0.412-0.143-0.376-0.197-0.358-0.197-0.358q-0.143-0.179-0.233-0.358t-0.197-0.358-0.143-0.358-0.036-0.394q0-0.286 0.125-0.519t0.34-0.448q0.251-0.179 0.609-0.286t0.859-0.107v0z"></path>
</svg>
