<!-- Generated by IcoMoon.io -->
<svg version="1.1" xmlns="http://www.w3.org/2000/svg" width="32" height="32" viewBox="0 0 32 32">
<title>svg</title>
<path d="M31.5 31.5h-31v-15.5q0-1.875 1.328-3.203t3.203-1.328q-1.313-1.344-1.313-3.219t1.313-3.219q1.344-1.313 3.219-1.313t3.219 1.313q0-1.875 1.328-3.203t3.203-1.328 3.203 1.328 1.328 3.203q1.344-1.313 3.219-1.313t3.219 1.313q1.313 1.344 1.313 3.219t-1.313 3.219q1.875 0 3.203 1.328t1.328 3.203v15.5zM29.406 16.031v-0.031q0-1.031-0.719-1.75t-1.719-0.719q-0.531 0-0.969 0.203t-0.781 0.516h-5.031l3.563-3.531q0.469 0 0.922-0.188t0.828-0.531q0.719-0.719 0.719-1.75t-0.719-1.75-1.75-0.719-1.75 0.719q-0.344 0.375-0.531 0.828t-0.188 0.922l-3.531 3.563v-5.031q0.313-0.344 0.516-0.781t0.203-0.969q0-1-0.719-1.719t-1.75-0.719-1.75 0.719-0.719 1.719q0 0.531 0.203 0.969t0.516 0.781v5.031l-3.531-3.563q0-0.469-0.188-0.922t-0.531-0.828q-0.719-0.719-1.75-0.719t-1.75 0.719-0.719 1.75 0.719 1.75q0.375 0.344 0.828 0.531t0.922 0.188l3.563 3.531h-5.031q-0.344-0.313-0.781-0.516t-0.969-0.203q-1 0-1.719 0.719t-0.719 1.75v0.031h26.813zM17.656 17.031l-1.688 8.094-1.688-8.094h-2.344l2.844 13.844h2.375l2.875-13.844h-2.375zM24.063 22.781v2.344h1.688v1.688q0 0.688-0.5 1.188t-1.188 0.5-1.172-0.5-0.484-1.188v0-5.719q0-0.688 0.484-1.188t1.172-0.5 1.188 0.5 0.5 1.188h2.375q0-1.688-1.188-2.875t-2.875-1.188q-1.656 0-2.844 1.188t-1.188 2.875v0 5.719q0 1.688 1.188 2.875t2.844 1.188q1.688 0 2.875-1.188t1.188-2.875v0-4.031h-4.063zM5 23.969v0q0.563 0.531 1.297 0.844t1.578 0.313v0q0.344 0 0.656 0.141t0.531 0.359v0q0.219 0.25 0.359 0.547t0.141 0.641q0 0.688-0.5 1.188t-1.188 0.5-1.188-0.5-0.5-1.188h-2.375q0 1.688 1.188 2.875t2.875 1.188 2.875-1.188 1.188-2.875q0-0.844-0.328-1.578t-0.859-1.266v0q-0.563-0.563-1.297-0.875t-1.578-0.313v0q-0.344 0-0.656-0.141t-0.531-0.359v0q-0.219-0.219-0.359-0.531t-0.141-0.656q0-0.688 0.5-1.188t1.188-0.5 1.188 0.5 0.5 1.188h2.375q0-1.688-1.188-2.875t-2.875-1.188-2.875 1.188-1.188 2.875q0 0.844 0.328 1.578t0.859 1.297v0 0z"></path>
</svg>
