<!-- Generated by IcoMoon.io -->
<svg version="1.1" xmlns="http://www.w3.org/2000/svg" width="32" height="32" viewBox="0 0 32 32">
<title>swift</title>
<path d="M19.295 3.48l1.008 0.678t2.326 1.919 2.616 3.023 1.919 3.993q1.085 3.993 0.698 5.931l-0.388 1.938 0.543 0.678t1.202 2.229q0.969 2.326 0.62 3.489l-0.349 1.163-0.426-1.143t-2.791-1.454q-2.132-0.31-3.682 1.047t-5.621 1.279q-1.163-0.039-2.907-0.291t-3.779-1.143-4.225-2.616-4.244-4.71q2.016 1.163 4.632 2.461t5.872 1.066q3.256-0.271 4.244-1.027l0.988-0.756-1.376-1.163t-3.353-3.101-4.186-4.458-3.915-5.233q1.279 1.124 3.295 2.636t3.896 2.888 3.217 2.326 1.26 0.872q-0.969-0.736-2.403-2.423t-2.791-3.411-2.306-3.043l-0.95-1.318 1.996 1.686t4.477 3.721 4.651 3.721 2.558 1.647q0.155-0.349 0.504-1.376t0.329-2.675-0.659-3.934-2.5-5.117v0z"></path>
</svg>
